<?xml version="1.0" encoding="UTF-8"?>
<!DOCTYPE svg PUBLIC "-//W3C//DTD SVG 1.1//EN" "http://www.w3.org/Graphics/SVG/1.1/DTD/svg11.dtd">
<!-- Creator: CorelDRAW 2021 (64-Bit) -->
<svg xmlns="http://www.w3.org/2000/svg" xml:space="preserve" width="38.9097mm" height="9.4666mm" version="1.1" style="shape-rendering:geometricPrecision; text-rendering:geometricPrecision; image-rendering:optimizeQuality; fill-rule:evenodd; clip-rule:evenodd"
viewBox="0 0 1220.83 297.02"
 xmlns:xlink="http://www.w3.org/1999/xlink"
 xmlns:xodm="http://www.corel.com/coreldraw/odm/2003">
 <defs>
  <style type="text/css">
   <![CDATA[
    .fil1 {fill:#FEFEFE}
    .fil0 {fill:#FEFEFE;fill-rule:nonzero}
   ]]>
  </style>
 </defs>
 <g id="Capa_x0020_1">
  <metadata id="CorelCorpID_0Corel-Layer"/>
  <path class="fil0" d="M915.29 177.93l0 -4.72 5.87 0 1.92 0c0.94,0.03 1.39,-0.4 1.37,-1.33 0,-0.27 -0.09,-0.61 -0.28,-1l-7.59 -16.76 -0.73 -1.46c-0.13,-0.15 -0.28,-0.31 -0.47,-0.47l-0.08 -0.03 0 -13.13 0.87 -1.95c0.86,-2 1.66,-2.98 2.38,-2.92 0.89,0 1.9,1.28 3.03,3.85l21.56 49.07 2.28 4.77c1.66,3.44 3.42,5.44 5.31,5.98l2.06 0.59c0.86,0.31 1.28,0.8 1.28,1.47 0,0.61 -0.3,1.02 -0.88,1.23l-0.95 0.09 -4.98 -0.36c-2.45,-0.13 -5.06,-0.19 -7.83,-0.19 -3.67,0 -6.7,0.13 -9.11,0.36l-2.85 0.19c-0.89,0.07 -1.48,-0.23 -1.78,-0.87l-0.09 -0.55c0,-0.64 0.26,-1.11 0.78,-1.42l1.45 -0.55c2.85,-0.73 4.28,-2.53 4.31,-5.4 0,-0.85 -0.15,-1.75 -0.47,-2.69l-0.55 -1.52 -3.39 -7.42c-0.39,-0.78 -0.73,-1.36 -1.05,-1.74 -0.77,-0.73 -2.39,-1.11 -4.9,-1.14l-6.49 0zm51.69 -21.33l0 0 0 -5.81c-0.06,-4.25 -1.1,-7.33 -3.11,-9.25 -1.98,-1.86 -3.83,-2.97 -5.5,-3.29l-1.33 -0.33c-0.58,-0.14 -0.84,-0.6 -0.78,-1.33 -0.09,-1.19 0.77,-1.77 2.56,-1.74l5.05 0.55c1.83,0.03 4,-0.13 6.5,-0.45l1.88 -0.09c1.19,0.03 2.14,0.28 2.84,0.73 0.58,0.42 1.14,0.95 1.69,1.59l3.08 3.67 34.87 37.62c0.51,0.58 1.04,1.08 1.59,1.52 0.38,0.3 0.67,0.45 0.93,0.45l0.19 0c0.11,-0.03 0.2,-0.1 0.27,-0.19 0.34,-0.42 0.55,-1.33 0.62,-2.7 0.08,-1.36 0.11,-2.73 0.11,-4.11l0 -17.29c-0.03,-5.69 -0.31,-9.52 -0.83,-11.5 -0.91,-3.53 -3.84,-5.67 -8.79,-6.4 -1.55,-0.22 -2.34,-0.81 -2.38,-1.78 -0.03,-1.01 0.63,-1.54 1.97,-1.61 0.76,0 1.95,0.11 3.57,0.31 1.13,0.16 2.75,0.24 4.89,0.24 2.78,0.03 6.22,-0.14 10.31,-0.5 0.33,-0.03 0.89,-0.05 1.69,-0.05 1.76,0 2.69,0.49 2.75,1.47 0,0.89 -0.67,1.53 -2.01,1.92 -3.08,0.97 -5,3.14 -5.76,6.5 -0.42,1.83 -0.66,4.86 -0.69,9.06l0 45.26c0,0.73 -0.14,1.39 -0.41,1.97l-0.42 0.55c-0.27,0.25 -0.5,0.36 -0.69,0.33 -0.49,0.03 -0.95,-0.2 -1.37,-0.69l-1.83 -1.92 -42.1 -45.08 -2.65 -2.75 -0.92 -0.6c-0.14,0.03 -0.25,0.08 -0.31,0.14 -0.41,0.39 -0.59,1.08 -0.59,2.06l-0.14 3.7 0 18.67c0,6.17 0.24,10.75 0.69,13.73 0.83,5.06 3.84,7.95 9.06,8.66 1.47,0.25 2.22,0.81 2.25,1.69 0.06,1.17 -0.73,1.74 -2.38,1.7 -0.53,0.03 -1.66,-0.03 -3.39,-0.19 -3.55,-0.2 -6.64,-0.33 -9.29,-0.36 -2.2,0.03 -4.11,0.14 -5.74,0.31 -1.15,0.15 -2.09,0.23 -2.83,0.23 -0.83,-0.03 -1.31,-0.31 -1.47,-0.83l-0.09 -0.5c0,-0.58 0.3,-1.04 0.88,-1.37l1.59 -0.69c3.06,-1.22 4.84,-4.37 5.36,-9.47 0.25,-2.45 0.41,-4.83 0.5,-7.14l0.14 -5.73 0 -18.89zm72.26 13.12l0 0c-0.03,-3.97 0.72,-8.23 2.25,-12.81 2.19,-6.75 6.17,-12.21 11.92,-16.4 5.75,-4.2 12.25,-6.31 19.47,-6.34 5.53,0.07 10.97,1.33 16.29,3.8l3.17 1.47c0.42,0.26 0.83,0.37 1.24,0.31 0.48,-0.03 0.94,-0.35 1.37,-0.95l0.77 -1.23c0.13,-0.22 0.31,-0.36 0.56,-0.45l0.55 -0.09c1.06,0.09 1.66,1 1.78,2.75l0.36 5.86c0.22,3.56 0.44,6.08 0.67,7.5 0.23,1.44 0.34,2.61 0.34,3.53 0,1.25 -0.48,1.89 -1.47,1.92 -0.81,0.06 -1.63,-0.74 -2.42,-2.38 -1.53,-3.09 -3.59,-6.06 -6.18,-8.94 -2.83,-3.14 -5.69,-5.34 -8.55,-6.59 -2.69,-1.19 -5.65,-1.78 -8.89,-1.78 -6.8,0.03 -12.2,2.56 -16.2,7.59 -3.55,4.42 -5.3,10.22 -5.26,17.39 -0.03,4.22 0.56,8.09 1.78,11.62 1.72,5.12 4.47,9.54 8.3,13.23 4.01,3.87 8.74,5.8 14.18,5.77 3.27,0.03 6.48,-0.6 9.65,-1.88 3.36,-1.34 6.23,-3.13 8.61,-5.36l3.48 -3.51 0.91 -0.88c0.4,-0.36 0.8,-0.55 1.19,-0.55 0.92,0.13 1.44,0.67 1.56,1.64 0,1.14 -1.3,3.15 -3.89,6.04 -1.63,1.83 -3.37,3.47 -5.26,4.91 -6.08,4.64 -12.92,6.97 -20.56,7 -9.54,-0.06 -17.23,-3.03 -23.04,-8.92 -5.81,-5.89 -8.7,-13.64 -8.67,-23.26zm77.67 -20.22l0 0c0,-1.5 -0.06,-2.86 -0.19,-4.08 -0.36,-3.88 -2.83,-6.27 -7.42,-7.19l-1.59 -0.33c-1.08,-0.18 -1.58,-0.66 -1.52,-1.41 0.09,-1.04 0.83,-1.59 2.2,-1.66l4.8 0.27c2.56,0.19 5.36,0.28 8.39,0.28 3.69,0 6.86,-0.14 9.51,-0.4l2.3 -0.14c1.16,0 1.76,0.53 1.83,1.61 -0.03,0.73 -0.53,1.33 -1.51,1.78l-1.64 0.88c-1.92,1.15 -2.98,2.59 -3.16,4.3 -0.16,0.8 -0.22,1.7 -0.19,2.75l-0.05 3.61 0 8.83c-0.03,1.19 -0.02,2.03 0.05,2.51 -0.03,1.7 0.78,2.58 2.42,2.61 0.55,0.06 1.24,0.08 2.06,0.05l22.79 0 1.97 -0.05c1.72,-0.09 2.64,-0.77 2.8,-2.01l0.09 -2.28 0 -9.92c0,-1.5 -0.06,-2.86 -0.19,-4.08 -0.36,-3.88 -2.83,-6.27 -7.42,-7.19 -2.16,-0.28 -3.2,-0.88 -3.11,-1.78 -0.09,-1.01 0.66,-1.54 2.25,-1.61 0.52,0 2.11,0.09 4.78,0.27 2.67,0.19 5.55,0.28 8.63,0.28 3.64,0 6.71,-0.14 9.25,-0.4l2.2 -0.14c1.22,0 1.86,0.53 1.92,1.61 -0.03,0.7 -0.52,1.3 -1.47,1.78l-1.69 0.88c-1.83,0.97 -2.87,2.4 -3.11,4.3l-0.19 2.75 -0.09 3.61 0 36.74c-0.03,1.56 0.03,2.94 0.19,4.13 0.36,4.06 2.83,6.45 7.42,7.19l1.64 0.28c1.05,0.17 1.53,0.67 1.47,1.45 0,1.08 -0.77,1.63 -2.3,1.65l-4.75 -0.23c-3.26,-0.17 -6.29,-0.28 -9.07,-0.31 -3.23,0 -6.16,0.14 -8.78,0.41l-2.3 0.14c-1.19,0.03 -1.79,-0.48 -1.83,-1.56 0,-0.73 0.48,-1.35 1.47,-1.83l1.69 -0.83c1.76,-0.91 2.81,-2.36 3.11,-4.34l0.19 -2.75 0.09 -3.61 0 -13.51c0.06,-2.86 -0.8,-4.3 -2.56,-4.3l-2.11 0 -23.39 0 -1.61 0c-1.55,0.09 -2.36,0.7 -2.42,1.83l-0.09 2.39 0 13.81c-0.03,3.58 0.36,6.09 1.19,7.56 1.14,2.01 3.27,3.26 6.42,3.75l1.59 0.28c1.08,0.26 1.58,0.75 1.52,1.45 -0.06,1.08 -0.81,1.63 -2.25,1.65l-4.75 -0.23c-3.45,-0.17 -6.56,-0.28 -9.34,-0.31 -3.2,0.03 -6.06,0.17 -8.56,0.41l-2.21 0.14c-1.25,0.03 -1.89,-0.48 -1.92,-1.56 0,-0.73 0.48,-1.35 1.47,-1.83 0.73,-0.31 1.3,-0.58 1.69,-0.83 1.47,-0.7 2.4,-1.67 2.8,-2.92 0.26,-0.89 0.45,-2.28 0.55,-4.17 0.03,-0.87 0.05,-2.09 0.05,-3.61l0 -36.79zm81.42 0l0 0c0,-3.58 -0.39,-6.08 -1.19,-7.51 -1.08,-1.86 -3.2,-3.11 -6.42,-3.75l-1.59 -0.33c-1.08,-0.18 -1.58,-0.66 -1.52,-1.41 0.09,-1.04 0.84,-1.59 2.25,-1.66 0.51,0 2.09,0.09 4.73,0.27 2.64,0.19 5.51,0.28 8.62,0.28 3.67,0 6.76,-0.14 9.3,-0.4l2.2 -0.14c1.22,0 1.86,0.53 1.92,1.61 -0.03,0.7 -0.51,1.3 -1.47,1.78 -0.61,0.28 -1.17,0.56 -1.69,0.88 -1.53,0.78 -2.47,1.76 -2.84,2.92 -0.27,0.89 -0.44,2.27 -0.5,4.12 -0.07,0.91 -0.08,2.12 -0.05,3.61l0 36.74c-0.03,3.58 0.36,6.09 1.19,7.56 1.14,2.01 3.27,3.26 6.42,3.75l1.59 0.28c1.08,0.26 1.58,0.75 1.52,1.45 -0.06,1.08 -0.81,1.63 -2.25,1.65l-4.75 -0.23c-3.36,-0.17 -6.42,-0.28 -9.16,-0.31 -3.22,0 -6.12,0.14 -8.75,0.41l-2.3 0.14c-1.19,0.03 -1.8,-0.5 -1.83,-1.61 0,-0.7 0.5,-1.3 1.51,-1.78l1.64 -0.83c1.83,-0.97 2.89,-2.42 3.16,-4.34 0.12,-0.77 0.19,-1.67 0.19,-2.75l0.04 -3.61 0 -36.79zm-283.05 -10.47l0 0 0 13.13 -0.32 -0.1 -0.55 0.41 -0.59 1.19 -7.02 16.16 -0.4 1.11c-0.19,0.49 -0.28,0.84 -0.28,1.1 0,0.55 0.24,0.87 0.69,0.95 0.19,0.09 0.45,0.14 0.83,0.14l2.38 0.09 5.27 0 0 4.72 -5.96 0c-1.46,0 -2.7,0.12 -3.7,0.36 -1.13,0.25 -2.03,0.8 -2.7,1.66 -0.64,0.73 -1.14,1.56 -1.52,2.52l-2.14 5.22c-0.64,1.5 -0.95,2.78 -0.92,3.84 0.03,2.72 1.98,4.53 5.86,5.44 1.19,0.28 2.16,0.56 2.89,0.88 0.93,0.36 1.36,0.99 1.33,1.83l-0.09 0.64c-0.23,0.61 -0.98,0.92 -2.23,0.92l-3.91 -0.31c-1.86,-0.16 -3.77,-0.24 -5.72,-0.24 -2.28,0 -4.37,0.08 -6.27,0.24l-4.03 0.31c-1.44,-0.03 -2.16,-0.53 -2.16,-1.52 -0.06,-0.79 0.5,-1.42 1.69,-1.87 1.81,-0.83 3.25,-1.94 4.35,-3.34 0.67,-0.82 1.31,-1.91 1.92,-3.25 0.55,-1.1 1.11,-2.31 1.69,-3.66l21.61 -48.54zm-102.77 62.16l0 0 0 -4.74c5.04,-0.32 8.58,-2.29 10.62,-5.9 1.38,-2.38 2.08,-5.01 2.11,-7.92 -0.08,-7.61 -4.32,-12.12 -12.73,-13.52l0 -5.4c5.13,-0.8 7.68,-3.92 7.65,-9.35 -0.03,-1.76 -0.33,-3.53 -0.88,-5.26 -0.64,-1.92 -1.53,-3.53 -2.7,-4.84 -1.1,-1.24 -2.46,-2.26 -4.08,-3.07l0 -6.24c2.49,0.12 4.63,0.37 6.42,0.75 2.37,0.49 4.65,1.58 6.81,3.3 4.13,3.2 6.19,7.25 6.19,12.17 0,5.25 -2.3,9.32 -6.87,12.26l-1.14 0.69 1.78 0.69c7.48,2.99 11.25,8.2 11.31,15.66 -0.03,7.93 -3.23,13.79 -9.61,17.57 -3.51,2.14 -8.28,3.2 -14.28,3.2l-0.61 -0.02zm41.76 -51.69l0 0c0,-3.58 -0.39,-6.08 -1.19,-7.51 -1.08,-1.86 -3.2,-3.11 -6.42,-3.75l-1.59 -0.33c-1.08,-0.18 -1.58,-0.66 -1.52,-1.41 0.09,-1.04 0.84,-1.59 2.25,-1.66 0.52,0 2.1,0.09 4.73,0.27 2.64,0.19 5.51,0.28 8.62,0.28 3.67,0 6.76,-0.14 9.3,-0.4l2.2 -0.14c1.22,0 1.86,0.53 1.92,1.61 -0.03,0.7 -0.52,1.3 -1.47,1.78 -0.61,0.28 -1.17,0.56 -1.69,0.88 -1.53,0.78 -2.47,1.76 -2.84,2.92 -0.27,0.89 -0.44,2.27 -0.5,4.12 -0.06,0.91 -0.08,2.12 -0.05,3.61l0 36.74c-0.03,3.58 0.36,6.09 1.19,7.56 1.14,2.01 3.26,3.26 6.42,3.75l1.59 0.28c1.08,0.26 1.58,0.75 1.52,1.45 -0.06,1.08 -0.81,1.63 -2.25,1.65l-4.75 -0.23c-3.36,-0.17 -6.42,-0.28 -9.16,-0.31 -3.22,0 -6.12,0.14 -8.75,0.41l-2.3 0.14c-1.19,0.03 -1.8,-0.5 -1.83,-1.61 0,-0.7 0.5,-1.3 1.52,-1.78l1.64 -0.83c1.83,-0.97 2.89,-2.42 3.16,-4.34 0.12,-0.77 0.19,-1.67 0.19,-2.75l0.05 -3.61 0 -36.79zm-41.76 -14.58l0 0 0 6.24c-0.22,-0.11 -0.45,-0.22 -0.67,-0.32 -1.92,-0.86 -3.81,-1.28 -5.64,-1.28 -3.97,0.06 -6.08,1.58 -6.31,4.53l-0.09 3.06 0 10.66c-0.09,3.39 0.8,5.29 2.66,5.73 1.19,0.24 3.51,0.36 6.95,0.36 1.13,0.01 2.16,-0.06 3.11,-0.21l0 5.4c-1.83,-0.3 -3.85,-0.46 -6.08,-0.48 -2.91,0.03 -4.78,0.47 -5.64,1.33 -0.72,0.73 -1.06,2.59 -1,5.58l0 10.39c-0.03,1.47 0.05,2.78 0.23,3.94 0.55,4.42 4.25,6.64 11.13,6.64 0.47,-0 0.92,-0.02 1.36,-0.05l0 4.74 -6.58 -0.21c-4.83,-0.2 -8.98,-0.31 -12.45,-0.31 -2.63,0.03 -4.91,0.14 -6.83,0.31 -1.41,0.15 -2.52,0.23 -3.34,0.23 -1.19,0.03 -1.8,-0.48 -1.83,-1.56 0,-0.73 0.49,-1.35 1.47,-1.83l1.69 -0.83c1.76,-0.91 2.81,-2.36 3.11,-4.34l0.19 -2.75 0.09 -3.61 0 -36.93c0,-3.23 -0.31,-5.59 -0.92,-7.09 -0.69,-1.83 -2.56,-3.18 -5.58,-4.03l-1.59 -0.41c-1.11,-0.22 -1.61,-0.66 -1.52,-1.33 -0.03,-1.01 0.72,-1.56 2.25,-1.66l3.06 0.24c2.17,0.2 4.73,0.31 7.69,0.31l4.9 -0.09 6.62 -0.31c1.87,-0.07 3.91,-0.11 6.14,-0.14 1.21,0 2.35,0.03 3.42,0.08zm-99.78 66.95l0 0 0 -4.7 0.53 0.01c7.11,-0.03 12.54,-2.95 16.32,-8.78 3.16,-4.83 4.73,-11.01 4.77,-18.59 -0.03,-7.91 -1.88,-14.78 -5.53,-20.64 -3.87,-6.23 -9.23,-9.64 -16.09,-10.21l0 -4.78c0.46,-0.01 0.92,-0.02 1.39,-0.02 4.83,0.03 9.12,0.8 12.89,2.28 3.77,1.5 7.17,3.77 10.23,6.78 5.89,5.83 8.84,13.26 8.87,22.29 0,5.09 -0.88,10.02 -2.61,14.78 -1.79,4.99 -4.23,9 -7.33,12.1 -5.91,6.03 -13.73,9.2 -23.45,9.49zm0 -67.69l0 0 0 4.78c-0.62,-0.05 -1.26,-0.08 -1.9,-0.09 -6.83,-0.03 -12.03,2.59 -15.59,7.88 -2.72,3.97 -4.09,9.76 -4.13,17.39 -0.03,5.55 0.69,10.86 2.16,15.92 0.88,3.26 2.38,6.31 4.48,9.11 3.74,5.17 8.73,7.83 14.98,8.01l0 4.7c-0.44,0.01 -0.89,0.02 -1.34,0.03 -9.37,-0.03 -17.09,-2.97 -23.17,-8.83 -5.89,-5.72 -8.84,-13.41 -8.87,-23.07 0,-5.25 0.87,-10.28 2.61,-15.11 1.47,-4.14 3.77,-7.78 6.89,-10.92 3.13,-3.13 6.86,-5.55 11.19,-7.25 3.93,-1.54 8.17,-2.4 12.7,-2.54zm-146.57 43.74l0 0 0 -4.72 5.87 0 1.92 0c0.94,0.03 1.39,-0.4 1.37,-1.33 0,-0.27 -0.09,-0.61 -0.28,-1l-7.59 -16.76 -0.73 -1.46c-0.13,-0.15 -0.28,-0.31 -0.47,-0.47l-0.09 -0.03 0 -13.13 0.87 -1.95c0.86,-2 1.65,-2.98 2.37,-2.92 0.89,0 1.9,1.28 3.03,3.85l21.56 49.07 2.28 4.77c1.65,3.44 3.42,5.44 5.31,5.98l2.06 0.59c0.86,0.31 1.28,0.8 1.28,1.47 0,0.61 -0.3,1.02 -0.88,1.23l-0.95 0.09 -4.99 -0.36c-2.45,-0.13 -5.06,-0.19 -7.83,-0.19 -3.67,0 -6.7,0.13 -9.11,0.36l-2.84 0.19c-0.89,0.07 -1.48,-0.23 -1.78,-0.87l-0.09 -0.55c0,-0.64 0.27,-1.11 0.78,-1.42l1.46 -0.55c2.84,-0.73 4.28,-2.53 4.31,-5.4 0,-0.85 -0.16,-1.75 -0.47,-2.69l-0.55 -1.52 -3.39 -7.42c-0.39,-0.78 -0.73,-1.36 -1.05,-1.74 -0.77,-0.73 -2.39,-1.11 -4.9,-1.14l-6.49 0zm44.05 -40.56l0 0c0.09,-1.73 1.01,-2.58 2.8,-2.52l5.72 0.24c3.81,0.24 7.04,0.34 9.7,0.31l11.94 0 11.98 0c3.42,-0.06 6.64,-0.17 9.65,-0.31 2.63,-0.13 4.55,-0.2 5.77,-0.24 1.69,-0.06 2.59,0.78 2.75,2.52l1.23 11.03 0.33 3.34c-0.03,1.09 -0.64,1.64 -1.83,1.64 -0.89,0.03 -1.58,-0.56 -2.06,-1.78 -0.45,-1.09 -0.92,-2.58 -1.37,-4.44 -0.91,-3.42 -2.51,-5.47 -4.79,-6.17 -1.88,-0.61 -4.57,-0.9 -8.11,-0.88l-4.39 0c-1.31,0 -2.19,0.2 -2.62,0.6 -0.45,0.39 -0.64,1.25 -0.58,2.56l-0.05 6.78 0 32.4 0.14 5.34c0.15,3.84 0.68,6.25 1.62,7.19 0.92,0.95 3.23,1.89 6.89,2.84 1.37,0.33 2.06,0.97 2.06,1.87 -0.06,1.02 -0.62,1.52 -1.69,1.52l-2.58 -0.19c-0.94,-0.06 -2.65,-0.12 -5.13,-0.22l-7.59 -0.14 -6.83 0.14c-2.5,0.09 -4.22,0.16 -5.12,0.22l-2.58 0.19c-1.06,0.03 -1.63,-0.5 -1.68,-1.61 -0.03,-0.87 0.72,-1.47 2.25,-1.78 3.42,-0.83 5.64,-1.81 6.69,-2.97 0.91,-1.04 1.46,-3.42 1.64,-7.14l0.14 -5.26 0 -32.4 0 -6.78c0.03,-2.08 -0.97,-3.12 -2.97,-3.16l-4.53 0c-1.86,0 -3.61,0.08 -5.22,0.24 -2.39,0.24 -4.12,0.84 -5.21,1.83 -1.1,0.97 -1.97,2.64 -2.61,4.99 -0.55,1.89 -1.02,3.38 -1.37,4.44 -0.45,1.19 -1.13,1.78 -2.02,1.78 -1.25,0.06 -1.87,-0.49 -1.87,-1.64 0,-0.59 0.09,-1.7 0.28,-3.34l1.24 -11.03zm-44.05 1.67l0 0 0 13.13 -0.32 -0.1 -0.55 0.41 -0.6 1.19 -7.01 16.16 -0.41 1.11c-0.19,0.49 -0.28,0.84 -0.28,1.1 0,0.55 0.24,0.87 0.69,0.95 0.19,0.09 0.45,0.14 0.83,0.14l2.38 0.09 5.27 0 0 4.72 -5.96 0c-1.45,0 -2.7,0.12 -3.7,0.36 -1.12,0.25 -2.03,0.8 -2.7,1.66 -0.64,0.73 -1.14,1.56 -1.52,2.52l-2.14 5.22c-0.64,1.5 -0.95,2.78 -0.92,3.84 0.03,2.72 1.98,4.53 5.86,5.44 1.19,0.28 2.16,0.56 2.89,0.88 0.92,0.36 1.36,0.99 1.33,1.83l-0.09 0.64c-0.24,0.61 -0.99,0.92 -2.23,0.92l-3.91 -0.31c-1.86,-0.16 -3.77,-0.24 -5.72,-0.24 -2.28,0 -4.38,0.08 -6.27,0.24l-4.03 0.31c-1.44,-0.03 -2.16,-0.53 -2.16,-1.52 -0.06,-0.79 0.5,-1.42 1.69,-1.87 1.81,-0.83 3.25,-1.94 4.36,-3.34 0.67,-0.82 1.31,-1.91 1.92,-3.25 0.55,-1.1 1.11,-2.31 1.68,-3.66l21.61 -48.54zm-153.68 62.85l0 0 0 -4.7 0.53 0.01c7.11,-0.03 12.54,-2.95 16.32,-8.78 3.16,-4.83 4.73,-11.01 4.77,-18.59 -0.03,-7.91 -1.87,-14.78 -5.53,-20.64 -3.87,-6.23 -9.23,-9.64 -16.09,-10.21l0 -4.78c0.46,-0.01 0.92,-0.02 1.39,-0.02 4.83,0.03 9.12,0.8 12.89,2.28 3.77,1.5 7.17,3.77 10.23,6.78 5.89,5.83 8.84,13.26 8.87,22.29 0,5.09 -0.87,10.02 -2.61,14.78 -1.8,4.99 -4.24,9 -7.33,12.1 -5.92,6.03 -13.73,9.2 -23.45,9.49zm50.02 -45.28l0 0 0 -5.81c-0.06,-4.25 -1.1,-7.33 -3.11,-9.25 -1.98,-1.86 -3.83,-2.97 -5.5,-3.29l-1.33 -0.33c-0.58,-0.14 -0.84,-0.6 -0.78,-1.33 -0.09,-1.19 0.77,-1.77 2.56,-1.74l5.05 0.55c1.83,0.03 4,-0.13 6.5,-0.45l1.87 -0.09c1.19,0.03 2.14,0.28 2.85,0.73 0.58,0.42 1.14,0.95 1.69,1.59l3.07 3.67 34.87 37.62c0.51,0.58 1.05,1.08 1.59,1.52 0.37,0.3 0.67,0.45 0.92,0.45l0.19 0c0.11,-0.03 0.2,-0.1 0.27,-0.19 0.34,-0.42 0.55,-1.33 0.62,-2.7 0.08,-1.36 0.11,-2.73 0.11,-4.11l0 -17.29c-0.03,-5.69 -0.31,-9.52 -0.83,-11.5 -0.9,-3.53 -3.84,-5.67 -8.79,-6.4 -1.55,-0.22 -2.34,-0.81 -2.38,-1.78 -0.03,-1.01 0.62,-1.54 1.97,-1.61 0.77,0 1.95,0.11 3.58,0.31 1.12,0.16 2.75,0.24 4.89,0.24 2.78,0.03 6.22,-0.14 10.31,-0.5 0.33,-0.03 0.89,-0.05 1.69,-0.05 1.77,0 2.69,0.49 2.75,1.47 0,0.89 -0.67,1.53 -2.01,1.92 -3.08,0.97 -5,3.14 -5.76,6.5 -0.42,1.83 -0.66,4.86 -0.69,9.06l0 45.26c0,0.73 -0.14,1.39 -0.4,1.97l-0.42 0.55c-0.26,0.25 -0.5,0.36 -0.69,0.33 -0.48,0.03 -0.95,-0.2 -1.37,-0.69l-1.83 -1.92 -42.1 -45.08 -2.65 -2.75 -0.92 -0.6c-0.14,0.03 -0.25,0.08 -0.31,0.14 -0.41,0.39 -0.6,1.08 -0.6,2.06l-0.14 3.7 0 18.67c0,6.17 0.23,10.75 0.69,13.73 0.83,5.06 3.84,7.95 9.06,8.66 1.47,0.25 2.22,0.81 2.25,1.69 0.06,1.17 -0.73,1.74 -2.37,1.7 -0.53,0.03 -1.66,-0.03 -3.39,-0.19 -3.55,-0.2 -6.64,-0.33 -9.3,-0.36 -2.2,0.03 -4.11,0.14 -5.73,0.31 -1.15,0.15 -2.09,0.23 -2.83,0.23 -0.83,-0.03 -1.31,-0.31 -1.47,-0.83l-0.09 -0.5c0,-0.58 0.3,-1.04 0.88,-1.37l1.59 -0.69c3.06,-1.22 4.84,-4.37 5.36,-9.47 0.25,-2.45 0.4,-4.83 0.5,-7.14l0.14 -5.73 0 -18.89zm-121.52 -21.45l0 0c7.69,0.77 13.89,2.99 18.59,6.7 7.23,5.69 10.86,13.34 10.89,22.98 0,5.12 -1.05,10.09 -3.16,14.92 -5.14,11.81 -13.91,18.75 -26.32,20.81l0 -4.74c7.94,-1.73 13.28,-6.73 15.98,-15.02 1.15,-3.53 1.73,-7.4 1.73,-11.62 0,-3.36 -0.34,-6.39 -1.04,-9.11 -1.5,-5.6 -4.25,-10.33 -8.25,-14.13 -2.45,-2.34 -5.26,-4.03 -8.42,-5.07l0 -5.71zm71.5 -0.97l0 0 0 4.78c-0.62,-0.05 -1.26,-0.08 -1.9,-0.09 -6.83,-0.03 -12.03,2.59 -15.59,7.88 -2.72,3.97 -4.09,9.76 -4.13,17.39 -0.03,5.55 0.69,10.86 2.16,15.92 0.88,3.26 2.38,6.31 4.48,9.11 3.74,5.17 8.73,7.83 14.98,8.01l0 4.7c-0.44,0.01 -0.89,0.02 -1.34,0.03 -9.37,-0.03 -17.09,-2.97 -23.17,-8.83 -5.89,-5.72 -8.84,-13.41 -8.87,-23.07 0,-5.25 0.88,-10.28 2.61,-15.11 1.47,-4.14 3.77,-7.78 6.89,-10.92 3.13,-3.13 6.86,-5.55 11.19,-7.25 3.93,-1.54 8.17,-2.4 12.7,-2.54zm-100.98 15.68l0 0c0,-1.38 -0.06,-2.74 -0.19,-4.08 -0.17,-2.12 -0.75,-3.73 -1.68,-4.8 -0.67,-0.77 -2.22,-1.52 -4.62,-2.25l-1.59 -0.5c-1.14,-0.36 -1.64,-0.91 -1.52,-1.61 -0.13,-1.15 0.61,-1.75 2.2,-1.78l4.84 0.41c0.89,0.13 2.78,0.17 5.69,0.14 3.81,0.03 7.29,-0.03 10.47,-0.19l9.58 -0.36c2.21,0 4.31,0.1 6.31,0.3l0 5.71c-2,-0.66 -4.13,-1.06 -6.41,-1.2l-3.72 -0.09c-2.89,0 -4.83,0.33 -5.81,1 -1.16,0.8 -1.75,2.61 -1.78,5.45l0 4.76 0 29.1c0,6.28 0.28,10.23 0.83,11.84 1.03,3.2 4.36,4.8 9.98,4.77 2.49,0.01 4.79,-0.22 6.91,-0.68l0 4.74c-2.56,0.43 -5.28,0.65 -8.16,0.66l-7.73 -0.4c-1.7,-0.06 -3.58,-0.11 -5.63,-0.14 -2.56,0.03 -6.23,0.2 -10.98,0.5 -0.44,0.06 -0.88,0.08 -1.33,0.04 -1.44,0.07 -2.17,-0.45 -2.2,-1.56 0,-0.73 0.48,-1.35 1.47,-1.83 0.73,-0.31 1.3,-0.58 1.69,-0.83 1.47,-0.7 2.4,-1.67 2.8,-2.92 0.26,-0.89 0.45,-2.28 0.55,-4.17 0.03,-0.87 0.05,-2.09 0.05,-3.61l0 -36.43z"/>
  <path class="fil0" d="M709.06 284.89l0 -1.88c1,-0.15 1.99,-0.52 2.95,-1.09 0.77,-0.46 1.31,-0.9 1.64,-1.32 0.32,-0.42 0.49,-1.13 0.49,-2.13l0 -6.46c-1.44,0.3 -2.5,0.55 -3.19,0.72 -0.66,0.17 -1.28,0.37 -1.89,0.59l0 -2.05c0.35,-0.1 0.72,-0.19 1.08,-0.29l3.99 -0.92 0 -3.82c0.02,-1.65 -0.6,-2.95 -1.83,-3.93 -0.83,-0.65 -1.91,-1.05 -3.24,-1.2l0 -2.01 0.22 -0c1.19,0 2.34,0.13 3.47,0.37 2.3,0.54 3.92,1.62 4.88,3.25 0.6,1.02 0.88,2.98 0.87,5.89l0 10.75 0 1.4c0.19,1.74 0.91,2.6 2.16,2.56 0.36,0.02 0.69,-0.02 0.97,-0.12 0.06,-0.02 0.29,-0.03 0.72,-0.03 0.38,-0.02 0.56,0.11 0.52,0.37 0,0.64 -0.57,1.1 -1.69,1.41 -0.71,0.23 -1.34,0.34 -1.92,0.31 -1.37,0.04 -2.64,-0.66 -3.78,-2.1l-0.67 -0.83 -0.86 0.55c-0.57,0.38 -1.11,0.68 -1.61,0.89 -1.07,0.51 -2.15,0.88 -3.26,1.13zm0 -25.8l0 0 0 2.01c-0.31,-0.03 -0.64,-0.06 -0.99,-0.06 -3.28,0.08 -4.92,1.01 -4.94,2.78 -0.02,0.46 0.05,1.02 0.19,1.67l0.18 0.89c0.09,0.38 0.15,0.64 0.17,0.77 -0.02,0.54 -0.42,0.8 -1.21,0.8 -0.5,0.02 -1.01,-0.08 -1.55,-0.29 -1.13,-0.32 -1.68,-0.91 -1.64,-1.75 0.02,-1.81 1.02,-3.44 2.99,-4.88 0.89,-0.67 1.96,-1.16 3.19,-1.48 1.16,-0.29 2.36,-0.45 3.61,-0.47zm0 12.18l0 0 0 2.05c-0.61,0.23 -1.21,0.48 -1.77,0.77 -2.21,1.07 -3.31,2.66 -3.31,4.73 0.02,2.89 1.33,4.32 3.92,4.29 0.39,0 0.77,-0.03 1.16,-0.09l0 1.88c-1.08,0.24 -2.17,0.36 -3.29,0.36 -0.84,0.02 -1.62,-0.07 -2.32,-0.25 -1.23,-0.27 -2.2,-0.97 -2.9,-2.1 -0.66,-1.02 -0.96,-2.2 -0.92,-3.54 0.04,-3.16 2.12,-5.51 6.24,-7.06 1,-0.38 2.07,-0.73 3.2,-1.04zm-88.25 13.63l0 0 0 -1.88c1,-0.15 1.99,-0.52 2.95,-1.09 0.77,-0.46 1.31,-0.9 1.64,-1.32 0.32,-0.42 0.49,-1.13 0.49,-2.13l0 -6.46c-1.44,0.3 -2.5,0.55 -3.19,0.72 -0.66,0.17 -1.28,0.37 -1.89,0.59l0 -2.05c0.35,-0.1 0.72,-0.19 1.08,-0.29l3.99 -0.92 0 -3.82c0.02,-1.65 -0.6,-2.95 -1.83,-3.93 -0.83,-0.65 -1.91,-1.05 -3.24,-1.2l0 -2.01 0.22 -0c1.19,0 2.34,0.13 3.47,0.37 2.29,0.54 3.92,1.62 4.88,3.25 0.6,1.02 0.88,2.98 0.87,5.89l0 10.75 0 1.4c0.19,1.74 0.91,2.6 2.16,2.56 0.36,0.02 0.68,-0.02 0.97,-0.12 0.06,-0.02 0.29,-0.03 0.72,-0.03 0.38,-0.02 0.56,0.11 0.52,0.37 0,0.64 -0.57,1.1 -1.7,1.41 -0.71,0.23 -1.35,0.34 -1.92,0.31 -1.37,0.04 -2.64,-0.66 -3.78,-2.1l-0.67 -0.83 -0.87 0.55c-0.57,0.38 -1.1,0.68 -1.61,0.89 -1.07,0.51 -2.16,0.88 -3.26,1.13zm0 -29.98l0 0 0 -3.43 2.34 -1.71c1,-0.73 1.85,-1.09 2.59,-1.09 1.21,-0.02 1.84,0.47 1.9,1.46 -0.02,0.75 -0.55,1.41 -1.58,1.99l-5.24 2.78zm15.81 22.27l0 0c-0.04,-0.83 0.21,-1.26 0.75,-1.33 0.32,0.04 0.56,0.26 0.68,0.66 0.1,0.31 0.24,0.79 0.4,1.44 0.1,0.52 0.25,1 0.46,1.43 1.04,2.63 2.91,3.93 5.63,3.91 1.31,0.04 2.44,-0.36 3.42,-1.2 0.97,-0.84 1.48,-1.95 1.52,-3.33 -0.02,-1.61 -0.84,-2.86 -2.46,-3.77 -0.76,-0.42 -1.5,-0.79 -2.24,-1.12l-2.59 -1.15c-0.82,-0.36 -1.58,-0.79 -2.26,-1.3 -2.01,-1.4 -3.02,-3.16 -3.02,-5.28 0,-2.07 0.81,-3.81 2.44,-5.21 1.4,-1.19 3.24,-1.8 5.55,-1.86 0.91,0 1.85,0.09 2.81,0.26 1.47,0.27 2.41,0.67 2.81,1.18 0.14,0.24 0.22,0.61 0.26,1.13 0.1,1.05 0.15,2.01 0.15,2.86l0 0.29c0.02,0.74 -0.2,1.12 -0.66,1.12l-0.15 0 -0.23 -0.15c-0.08,-0.06 -0.15,-0.19 -0.23,-0.4 -0.12,-0.23 -0.35,-0.62 -0.69,-1.18 -1.34,-2.07 -3.07,-3.12 -5.16,-3.16 -1.04,0.02 -1.94,0.32 -2.7,0.92 -0.77,0.59 -1.15,1.39 -1.15,2.41 0,1.22 0.69,2.23 2.06,3.02 0.84,0.51 1.8,1 2.88,1.46l2.58 1.09c0.94,0.42 1.71,0.81 2.33,1.19 1.26,0.83 2.09,2.09 2.47,3.76 0.17,0.72 0.25,1.41 0.25,2.1 -0.04,2.17 -0.72,3.98 -2.07,5.46 -1.63,1.87 -3.71,2.81 -6.24,2.81 -1.13,0.02 -2.22,-0.19 -3.3,-0.61l-2.01 -0.75 -1.09 -0.28c-0.65,-0.18 -0.99,-0.53 -1,-1.06 -0.1,-0.94 -0.16,-1.88 -0.18,-2.82l-0.03 -2.55zm23.76 -9.55l0 0c0,-0.84 -0.01,-1.52 -0.03,-2.04 -0.04,-1.25 -0.5,-1.93 -1.38,-2.07l-1.2 -0.23c-0.55,-0.12 -0.8,-0.36 -0.75,-0.74 -0.02,-0.14 0.03,-0.26 0.15,-0.4l0.31 -0.29c0.17,-0.1 0.42,-0.19 0.74,-0.31 0.73,-0.24 1.83,-0.68 3.28,-1.35 0.71,-0.3 1.25,-0.57 1.61,-0.78 0.36,-0.23 0.69,-0.34 0.98,-0.34l0.29 0.06c0.27,0.12 0.41,0.51 0.43,1.17l-0.03 1.44 -0.03 1 0 15.03c-0.02,0.65 -0.01,1.27 0.03,1.86 0.02,0.96 0.18,1.63 0.46,2.01 0.28,0.38 0.87,0.7 1.75,0.93 0.43,0.16 1.02,0.3 1.74,0.46 0.6,0.13 0.9,0.43 0.92,0.89 0,0.5 -0.48,0.75 -1.43,0.75l-0.83 0c-1.94,-0.12 -3.78,-0.19 -5.52,-0.21 -0.74,0 -1.2,0.01 -1.35,0.03 -1.07,0.14 -1.68,0.2 -1.8,0.18 -0.64,0.02 -0.96,-0.24 -0.98,-0.78 -0.02,-0.38 0.27,-0.67 0.86,-0.86 1.13,-0.46 1.72,-1.47 1.76,-3.05 0.02,-0.57 0.03,-1.26 0.03,-2.06l0 -10.3zm-0.34 -16.99l0 0c-0.02,-0.44 0.29,-1.06 0.93,-1.85 0.65,-0.8 1.2,-1.19 1.66,-1.17 0.49,0.04 1.05,0.41 1.66,1.14 0.62,0.72 0.93,1.34 0.95,1.88 0,0.53 -0.32,1.18 -0.94,1.93 -0.63,0.75 -1.18,1.14 -1.66,1.14 -0.47,0.04 -1.05,-0.34 -1.72,-1.15 -0.6,-0.71 -0.89,-1.35 -0.89,-1.92zm12.98 22.09l0 0c-0.02,-1.73 0.29,-3.43 0.95,-5.12 0.89,-2.45 2.49,-4.5 4.79,-6.15 2.13,-1.55 4.6,-2.34 7.44,-2.38 1.82,0.04 3.68,0.42 5.6,1.15 0.77,0.29 1.19,0.75 1.26,1.35l0.23 2.93c0,1.19 -0.2,1.76 -0.63,1.73 -0.25,0 -0.5,-0.16 -0.75,-0.46l-1.74 -2.1c-1.46,-1.74 -3.45,-2.63 -5.96,-2.64 -0.95,0 -1.76,0.16 -2.44,0.46 -0.92,0.38 -1.71,1.03 -2.35,1.95 -1.38,1.84 -2.06,4.17 -2.04,6.98 -0.02,1.19 0.11,2.33 0.37,3.42 0.83,3.64 2.63,6.11 5.4,7.41 1.21,0.62 2.6,0.91 4.19,0.89 2.03,-0.02 3.98,-0.63 5.84,-1.81 0.67,-0.4 1.23,-0.82 1.69,-1.26 0.24,-0.25 0.49,-0.37 0.72,-0.37l0.12 0 0.2 0.12c0.09,0.11 0.14,0.22 0.14,0.34 0,0.24 -0.1,0.51 -0.28,0.77l-0.35 0.46c-1.65,1.97 -3.69,3.36 -6.12,4.17 -1.34,0.48 -2.76,0.71 -4.28,0.68 -3.46,0 -6.35,-1.21 -8.67,-3.65 -2.24,-2.35 -3.35,-5.32 -3.33,-8.87zm-52.21 -21.25l0 0 0 3.43 -1.13 0.6 -0.69 0.35c-0.35,0.17 -0.71,0.24 -1.07,0.23 -0.76,-0.02 -1.15,-0.33 -1.15,-0.92 0,-0.36 0.15,-0.7 0.43,-1l0.29 -0.26 3.32 -2.43zm0 7.61l0 0 0 2.01c-0.31,-0.03 -0.65,-0.06 -0.99,-0.06 -3.28,0.08 -4.92,1.01 -4.94,2.78 -0.02,0.46 0.05,1.02 0.19,1.67l0.18 0.89c0.09,0.38 0.15,0.64 0.17,0.77 -0.02,0.54 -0.42,0.8 -1.2,0.8 -0.5,0.02 -1.01,-0.08 -1.55,-0.29 -1.13,-0.32 -1.68,-0.91 -1.64,-1.75 0.02,-1.81 1.02,-3.44 2.99,-4.88 0.89,-0.67 1.96,-1.16 3.18,-1.48 1.16,-0.29 2.36,-0.45 3.61,-0.47zm0 12.18l0 0 0 2.05c-0.61,0.23 -1.21,0.48 -1.77,0.77 -2.21,1.07 -3.3,2.66 -3.3,4.73 0.02,2.89 1.32,4.32 3.91,4.29 0.39,0 0.78,-0.03 1.16,-0.09l0 1.88c-1.08,0.24 -2.17,0.36 -3.29,0.36 -0.84,0.02 -1.62,-0.07 -2.32,-0.25 -1.22,-0.27 -2.19,-0.97 -2.9,-2.1 -0.66,-1.02 -0.96,-2.2 -0.92,-3.54 0.04,-3.16 2.12,-5.51 6.23,-7.06 1.01,-0.38 2.07,-0.73 3.2,-1.04zm-120.94 13.63l0 0 0 -1.88c1,-0.15 1.99,-0.52 2.95,-1.09 0.77,-0.46 1.31,-0.9 1.63,-1.32 0.33,-0.42 0.49,-1.13 0.49,-2.13l0 -6.46c-1.44,0.3 -2.5,0.55 -3.19,0.72 -0.65,0.17 -1.28,0.37 -1.89,0.59l0 -2.05c0.35,-0.1 0.72,-0.19 1.08,-0.29l3.99 -0.92 0 -3.82c0.02,-1.65 -0.6,-2.95 -1.84,-3.93 -0.82,-0.65 -1.9,-1.05 -3.24,-1.2l0 -2.01 0.22 -0c1.19,0 2.34,0.13 3.47,0.37 2.3,0.54 3.92,1.62 4.89,3.25 0.6,1.02 0.88,2.98 0.86,5.89l0 10.75 0 1.4c0.19,1.74 0.91,2.6 2.16,2.56 0.36,0.02 0.69,-0.02 0.97,-0.12 0.06,-0.02 0.29,-0.03 0.72,-0.03 0.38,-0.02 0.56,0.11 0.52,0.37 0,0.64 -0.57,1.1 -1.7,1.41 -0.71,0.23 -1.34,0.34 -1.92,0.31 -1.37,0.04 -2.64,-0.66 -3.78,-2.1l-0.67 -0.83 -0.86 0.55c-0.57,0.38 -1.11,0.68 -1.61,0.89 -1.07,0.51 -2.16,0.88 -3.26,1.13zm15.81 -7.7l0 0c-0.04,-0.83 0.21,-1.26 0.74,-1.33 0.33,0.04 0.56,0.26 0.69,0.66 0.1,0.31 0.23,0.79 0.4,1.44 0.1,0.52 0.26,1 0.46,1.43 1.04,2.63 2.91,3.93 5.63,3.91 1.31,0.04 2.44,-0.36 3.42,-1.2 0.97,-0.84 1.48,-1.95 1.52,-3.33 -0.02,-1.61 -0.84,-2.86 -2.46,-3.77 -0.76,-0.42 -1.5,-0.79 -2.25,-1.12l-2.59 -1.15c-0.82,-0.36 -1.58,-0.79 -2.27,-1.3 -2.01,-1.4 -3.02,-3.16 -3.02,-5.28 0,-2.07 0.81,-3.81 2.44,-5.21 1.4,-1.19 3.24,-1.8 5.55,-1.86 0.92,0 1.85,0.09 2.82,0.26 1.47,0.27 2.41,0.67 2.81,1.18 0.14,0.24 0.21,0.61 0.25,1.13 0.1,1.05 0.15,2.01 0.15,2.86l0 0.29c0.02,0.74 -0.2,1.12 -0.66,1.12l-0.15 0 -0.22 -0.15c-0.08,-0.06 -0.16,-0.19 -0.24,-0.4 -0.12,-0.23 -0.34,-0.62 -0.68,-1.18 -1.34,-2.07 -3.07,-3.12 -5.17,-3.16 -1.04,0.02 -1.94,0.32 -2.71,0.92 -0.77,0.59 -1.15,1.39 -1.15,2.41 0,1.22 0.68,2.23 2.06,3.02 0.84,0.51 1.8,1 2.88,1.46l2.58 1.09c0.94,0.42 1.72,0.81 2.33,1.19 1.27,0.83 2.09,2.09 2.47,3.76 0.17,0.72 0.25,1.41 0.25,2.1 -0.04,2.17 -0.72,3.98 -2.07,5.46 -1.63,1.87 -3.71,2.81 -6.24,2.81 -1.13,0.02 -2.22,-0.19 -3.3,-0.61l-2.01 -0.75 -1.09 -0.28c-0.65,-0.18 -0.99,-0.53 -1,-1.06 -0.1,-0.94 -0.16,-1.88 -0.18,-2.82l-0.03 -2.55zm73.71 3.24l0 0c-4.14,3.2 -9.58,4.8 -16.34,4.82 -6.43,0.04 -11.57,-1.79 -15.39,-5.49 -3.97,-3.84 -5.94,-8.9 -5.92,-15.16 -0.02,-2.42 0.29,-4.68 0.92,-6.79 0.83,-2.81 2.17,-5.36 4.05,-7.64 1.53,-1.88 3.34,-3.43 5.43,-4.66 1.66,-0.99 3.42,-1.72 5.28,-2.16 1.72,-0.42 3.7,-0.63 5.91,-0.63 5.08,0.02 9.24,1.12 12.48,3.3 0.67,0.52 1.2,0.77 1.61,0.75 0.23,0.02 0.58,-0.19 1.06,-0.61 0.24,-0.17 0.42,-0.26 0.58,-0.29 0.08,-0.02 0.15,0 0.23,0.06 0.18,0.12 0.29,0.42 0.37,0.92l0.7 5.51 0.23 2.08 0 0.43c0,0.59 -0.11,0.92 -0.32,1l-0.31 0.06c-0.34,0.02 -0.55,-0.1 -0.67,-0.35l-0.25 -0.55c-0.73,-1.74 -2.25,-3.71 -4.54,-5.89 -2.64,-2.51 -6.31,-3.77 -10.97,-3.77 -2.43,0 -4.66,0.33 -6.67,1.01 -3.38,1.15 -5.96,3.32 -7.73,6.52 -1.63,2.93 -2.43,6.25 -2.41,9.94 -0.02,5.4 1.45,9.99 4.42,13.76 3.17,4.01 7.45,5.99 12.87,5.95 3.25,0 6.28,-0.72 9.05,-2.16 2.89,-1.51 5.08,-3.7 6.55,-6.55 0.27,-0.5 0.54,-0.74 0.8,-0.72 0.48,0.06 0.73,0.36 0.75,0.92 -0.02,0.24 -0.07,0.59 -0.15,1.03l-0.97 4.77 -0.64 0.55zm8.82 -30.72l0 0 -0.03 -2.1c0,-0.78 -0.09,-1.29 -0.26,-1.52 -0.25,-0.3 -0.72,-0.52 -1.41,-0.63l-1.49 -0.18c-0.54,-0.06 -0.83,-0.19 -0.87,-0.4l-0.06 -0.29c0,-0.3 0.24,-0.56 0.74,-0.75l0.92 -0.34 2.59 -1.04c1.19,-0.47 2.09,-0.86 2.73,-1.17 0.3,-0.13 0.58,-0.21 0.83,-0.23l0.31 0.06c0.23,0.1 0.36,0.42 0.4,0.97l-0.06 1.67 0 2.02 0 32c-0.02,0.81 -0.01,1.42 0.03,1.86 0.06,1.54 0.81,2.51 2.27,2.93l1.73 0.46c0.58,0.15 0.87,0.45 0.89,0.89 0,0.5 -0.49,0.75 -1.46,0.75l-0.86 0c-1.79,-0.14 -3.15,-0.21 -4.08,-0.21 -0.29,0 -1.65,0.06 -4.08,0.18l-1.07 0.03c-0.59,0.02 -0.92,-0.12 -1,-0.4l-0.09 -0.37 0.06 -0.31c0.06,-0.22 0.35,-0.39 0.89,-0.55 1.27,-0.38 2,-1.04 2.21,-1.98 0.16,-0.6 0.23,-1.64 0.21,-3.13l0 -28.23zm-98.34 9.38l0 0 0 2.01c-0.32,-0.03 -0.64,-0.06 -0.99,-0.06 -3.27,0.08 -4.92,1.01 -4.94,2.78 -0.02,0.46 0.05,1.02 0.19,1.67l0.18 0.89c0.09,0.38 0.15,0.64 0.17,0.77 -0.02,0.54 -0.42,0.8 -1.21,0.8 -0.5,0.02 -1.01,-0.08 -1.55,-0.29 -1.13,-0.32 -1.68,-0.91 -1.64,-1.75 0.02,-1.81 1.02,-3.44 2.99,-4.88 0.89,-0.67 1.96,-1.16 3.19,-1.48 1.16,-0.29 2.36,-0.45 3.61,-0.47zm0 12.18l0 0 0 2.05c-0.61,0.23 -1.2,0.48 -1.77,0.77 -2.21,1.07 -3.31,2.66 -3.31,4.73 0.02,2.89 1.33,4.32 3.92,4.29 0.39,0 0.78,-0.03 1.16,-0.09l0 1.88c-1.08,0.24 -2.17,0.36 -3.29,0.36 -0.84,0.02 -1.62,-0.07 -2.32,-0.25 -1.23,-0.27 -2.2,-0.97 -2.91,-2.1 -0.66,-1.02 -0.96,-2.2 -0.92,-3.54 0.04,-3.16 2.12,-5.51 6.23,-7.06 1.01,-0.38 2.07,-0.73 3.2,-1.04zm-65.38 13.63l0 0 0 -1.88c1,-0.15 1.99,-0.52 2.94,-1.09 0.77,-0.46 1.32,-0.9 1.64,-1.32 0.33,-0.42 0.49,-1.13 0.49,-2.13l0 -6.46c-1.44,0.3 -2.5,0.55 -3.18,0.72 -0.65,0.17 -1.28,0.37 -1.89,0.59l0 -2.05c0.35,-0.1 0.72,-0.19 1.08,-0.29l3.99 -0.92 0 -3.82c0.02,-1.65 -0.6,-2.95 -1.83,-3.93 -0.82,-0.65 -1.9,-1.05 -3.24,-1.2l0 -2.01 0.22 -0c1.19,0 2.34,0.13 3.47,0.37 2.3,0.54 3.92,1.62 4.88,3.25 0.6,1.02 0.88,2.98 0.86,5.89l0 10.75 0 1.4c0.2,1.74 0.91,2.6 2.16,2.56 0.36,0.02 0.69,-0.02 0.97,-0.12 0.06,-0.02 0.29,-0.03 0.72,-0.03 0.38,-0.02 0.56,0.11 0.52,0.37 0,0.64 -0.57,1.1 -1.7,1.41 -0.71,0.23 -1.34,0.34 -1.92,0.31 -1.37,0.04 -2.64,-0.66 -3.78,-2.1l-0.67 -0.83 -0.86 0.55c-0.57,0.38 -1.11,0.68 -1.61,0.89 -1.07,0.51 -2.16,0.88 -3.26,1.13zm24.15 -22.56l0 0 1.26 -1.35c1.28,-1.27 2.43,-1.9 3.42,-1.9 0.88,0.04 1.7,0.34 2.44,0.89 1.11,0.84 1.68,1.51 1.7,2.01 0,0.36 -0.3,0.89 -0.9,1.58 -0.61,0.69 -1.06,1.03 -1.36,1.01 -0.22,0 -0.55,-0.13 -1,-0.4 -0.44,-0.25 -0.92,-0.48 -1.42,-0.67 -0.55,-0.21 -1.04,-0.31 -1.46,-0.31 -1.4,-0.02 -2.51,0.91 -3.33,2.78 -0.23,0.59 -0.34,1.38 -0.34,2.35l0 9.46c-0.02,0.81 -0.01,1.42 0.03,1.86 0.06,1.57 0.82,2.55 2.29,2.93l1.75 0.46c0.54,0.18 0.82,0.47 0.83,0.89 0,0.5 -0.5,0.75 -1.49,0.75l-0.95 0c-1.79,-0.12 -3.83,-0.19 -6.15,-0.21 -0.81,0 -1.28,0.01 -1.41,0.03 -0.96,0.14 -1.52,0.2 -1.67,0.18 -0.61,0.02 -0.94,-0.23 -0.98,-0.75 0.02,-0.38 0.33,-0.69 0.95,-0.89 1.51,-0.4 2.31,-1.42 2.38,-3.05 0.02,-0.53 0.03,-1.22 0.03,-2.06l0 -9.18 0 -1.24c-0.06,-1.14 -0.17,-1.94 -0.32,-2.41 -0.23,-0.83 -0.8,-1.33 -1.72,-1.53l-1.38 -0.29c-0.49,-0.1 -0.72,-0.31 -0.69,-0.66 -0.04,-0.3 0.19,-0.57 0.66,-0.77 0.28,-0.14 0.5,-0.23 0.7,-0.29l2.87 -1.07c0.53,-0.17 1.44,-0.57 2.73,-1.2 0.3,-0.13 0.58,-0.21 0.83,-0.23l0.32 0.06c0.28,0.13 0.43,0.51 0.43,1.12l-0.03 1.26 -0.03 0.94 0 0.98 1.01 -1.12zm19.62 0l0 0 1.26 -1.35c1.28,-1.27 2.43,-1.9 3.42,-1.9 0.88,0.04 1.7,0.34 2.44,0.89 1.11,0.84 1.68,1.51 1.7,2.01 0,0.36 -0.3,0.89 -0.9,1.58 -0.61,0.69 -1.06,1.03 -1.36,1.01 -0.22,0 -0.55,-0.13 -1,-0.4 -0.44,-0.25 -0.92,-0.48 -1.42,-0.67 -0.55,-0.21 -1.04,-0.31 -1.46,-0.31 -1.41,-0.02 -2.51,0.91 -3.34,2.78 -0.23,0.59 -0.34,1.38 -0.34,2.35l0 9.46c-0.02,0.81 -0.01,1.42 0.03,1.86 0.06,1.57 0.82,2.55 2.29,2.93l1.76 0.46c0.54,0.18 0.81,0.47 0.83,0.89 0,0.5 -0.5,0.75 -1.49,0.75l-0.95 0c-1.79,-0.12 -3.84,-0.19 -6.15,-0.21 -0.8,0 -1.28,0.01 -1.4,0.03 -0.96,0.14 -1.52,0.2 -1.67,0.18 -0.61,0.02 -0.94,-0.23 -0.98,-0.75 0.02,-0.38 0.34,-0.69 0.95,-0.89 1.51,-0.4 2.31,-1.42 2.38,-3.05 0.02,-0.53 0.03,-1.22 0.03,-2.06l0 -9.18 0 -1.24c-0.06,-1.14 -0.17,-1.94 -0.31,-2.41 -0.24,-0.83 -0.8,-1.33 -1.73,-1.53l-1.38 -0.29c-0.49,-0.1 -0.72,-0.31 -0.69,-0.66 -0.04,-0.3 0.19,-0.57 0.66,-0.77 0.28,-0.14 0.5,-0.23 0.7,-0.29l2.87 -1.07c0.53,-0.17 1.44,-0.57 2.73,-1.2 0.3,-0.13 0.58,-0.21 0.83,-0.23l0.31 0.06c0.29,0.13 0.43,0.51 0.43,1.12l-0.03 1.26 -0.03 0.94 0 0.98 1.01 -1.12zm-131.31 8.67l0 0c0,-1.26 -0.01,-2.3 -0.03,-3.13 -0.02,-1.25 -0.48,-2.07 -1.38,-2.47 -0.55,-0.22 -1.54,-0.49 -2.96,-0.77 -0.67,-0.12 -1.01,-0.41 -1.01,-0.89l0.06 -0.31 0.19 -0.23c0.2,-0.14 0.51,-0.21 0.95,-0.21 0.82,0 1.46,0.01 1.92,0.03l4.17 0.18c1.31,0.02 2.44,-0.02 3.41,-0.12 0.72,-0.06 1.17,-0.09 1.41,-0.09 0.72,0 1.1,0.24 1.15,0.75 -0.04,0.38 -0.26,0.69 -0.68,0.89l-1.01 0.55c-0.88,0.47 -1.35,1.61 -1.41,3.38l-0.08 2.47 0 5.43 0 2.01c0,0.82 -0.25,1.32 -0.75,1.5l-2.22 0.83c-0.08,0.02 -1.1,0.57 -3.07,1.67 -1.48,0.83 -3.08,1.45 -4.8,1.89 -2.22,0.62 -4.58,0.91 -7.09,0.89 -4.42,0.04 -8.28,-0.88 -11.55,-2.75 -3.58,-2.07 -6.14,-5.04 -7.67,-8.9 -1.16,-2.82 -1.74,-5.8 -1.73,-8.97 -0.02,-3.06 0.51,-5.99 1.58,-8.79 2.41,-6.37 6.62,-10.41 12.62,-12.09 2.37,-0.68 4.97,-1.01 7.81,-1.01 2.35,0 4.43,0.21 6.23,0.63 2.21,0.52 4.67,1.54 7.38,3.05 0.37,0.21 0.65,0.31 0.83,0.31 0.22,0 0.45,-0.15 0.72,-0.45 0.27,-0.29 0.49,-0.44 0.69,-0.44 0.08,0 0.13,0.01 0.18,0.03l0.28 0.2c0.17,0.23 0.29,0.46 0.38,0.7 0.06,0.34 0.12,0.76 0.17,1.26l0.46 6.03c0.02,0.25 0.03,0.58 0.03,0.98 -0.04,0.82 -0.25,1.25 -0.66,1.26 -0.4,0.02 -0.7,-0.19 -0.89,-0.61l-0.69 -1.23c-0.52,-0.95 -1.13,-1.85 -1.81,-2.7 -0.98,-1.19 -2.15,-2.26 -3.5,-3.19 -2.99,-2.07 -6.54,-3.12 -10.66,-3.16 -5.06,-0.02 -9.07,1.68 -12.04,5.09 -2.78,3.22 -4.16,7.39 -4.14,12.52 -0.02,3.26 0.55,6.28 1.7,9.08 1.74,4.39 4.62,7.45 8.62,9.2 1.93,0.88 4.11,1.31 6.52,1.3 2.57,0 5.26,-0.68 8.1,-2.04 1.74,-0.84 2.86,-1.67 3.36,-2.47 0.58,-0.94 0.88,-2.31 0.89,-4.09l0 -2.99zm87.54 -11.91l0 0 0 2.01c-0.32,-0.03 -0.64,-0.06 -0.99,-0.06 -3.27,0.08 -4.92,1.01 -4.94,2.78 -0.02,0.46 0.05,1.02 0.2,1.67l0.18 0.89c0.09,0.38 0.15,0.64 0.17,0.77 -0.02,0.54 -0.42,0.8 -1.21,0.8 -0.5,0.02 -1.01,-0.08 -1.55,-0.29 -1.13,-0.32 -1.68,-0.91 -1.63,-1.75 0.02,-1.81 1.02,-3.44 2.99,-4.88 0.89,-0.67 1.96,-1.16 3.19,-1.48 1.16,-0.29 2.36,-0.45 3.61,-0.47zm0 12.18l0 0 0 2.05c-0.61,0.23 -1.2,0.48 -1.77,0.77 -2.21,1.07 -3.31,2.66 -3.31,4.73 0.02,2.89 1.32,4.32 3.92,4.29 0.39,0 0.77,-0.03 1.16,-0.09l0 1.88c-1.08,0.24 -2.17,0.36 -3.29,0.36 -0.84,0.02 -1.62,-0.07 -2.32,-0.25 -1.23,-0.27 -2.2,-0.97 -2.91,-2.1 -0.66,-1.02 -0.96,-2.2 -0.92,-3.54 0.04,-3.16 2.12,-5.51 6.23,-7.06 1.01,-0.38 2.07,-0.73 3.2,-1.04zm-73.35 -6.55l0 0c-0.02,-1.16 -0.17,-1.96 -0.44,-2.38 -0.29,-0.42 -0.99,-0.75 -2.12,-0.95 -0.56,-0.08 -0.82,-0.34 -0.8,-0.81 -0.04,-0.3 0.13,-0.51 0.52,-0.63 0.21,-0.06 0.48,-0.11 0.81,-0.14 0.44,-0.02 1.34,-0.12 2.72,-0.32 1.07,-0.09 1.84,-0.2 2.32,-0.34 0.18,-0.04 0.35,-0.06 0.52,-0.06 0.19,0 0.36,0.05 0.52,0.15l0.23 0.25c0.04,0.16 0.07,0.38 0.09,0.66l0 0.46 0 14.45c0.08,4.79 2.12,7.16 6.12,7.1 3.83,-0.04 5.73,-2.36 5.69,-6.98l0 -10.46c-0.04,-1.8 -0.52,-2.82 -1.44,-3.08l-1.09 -0.25c-0.58,-0.1 -0.85,-0.36 -0.83,-0.81 -0.04,-0.3 0.13,-0.51 0.52,-0.63 0.19,-0.06 0.45,-0.11 0.77,-0.14l2.7 -0.32c1.15,-0.13 1.95,-0.24 2.41,-0.34 0.18,-0.04 0.34,-0.06 0.52,-0.06 0.18,0 0.33,0.05 0.49,0.15l0.22 0.25c0.04,0.16 0.07,0.38 0.09,0.69l0 0.49 0 18.41c-0.02,1.21 0.01,2.04 0.09,2.47 0.13,0.84 0.74,1.28 1.83,1.3l1.7 0.12c0.27,0.04 0.43,0.25 0.49,0.66 0.02,0.42 -0.12,0.67 -0.4,0.77 -0.3,0.16 -0.66,0.25 -1.06,0.29l-1.81 0.21c-0.99,0.12 -1.86,0.22 -2.61,0.34 -0.12,0.04 -0.38,0.05 -0.8,0.03 -0.98,0 -1.55,-0.72 -1.7,-2.17l-0.09 -1.38c-0.4,0.44 -0.71,0.75 -0.92,0.92 -1.91,1.77 -4.22,2.66 -6.95,2.64 -5.45,-0.02 -8.22,-3.18 -8.3,-9.51l0 -11.03zm31.19 2.92l0 0c0,-0.84 -0.01,-1.52 -0.03,-2.04 -0.04,-1.25 -0.5,-1.93 -1.38,-2.07l-1.2 -0.23c-0.55,-0.12 -0.8,-0.36 -0.74,-0.74 -0.02,-0.14 0.03,-0.26 0.14,-0.4l0.31 -0.29c0.17,-0.1 0.42,-0.19 0.75,-0.31 0.72,-0.24 1.82,-0.68 3.28,-1.35 0.71,-0.3 1.25,-0.57 1.61,-0.78 0.36,-0.23 0.69,-0.34 0.98,-0.34l0.28 0.06c0.27,0.12 0.41,0.51 0.43,1.17l-0.03 1.44 -0.03 1 0 15.03c-0.02,0.65 -0.01,1.27 0.03,1.86 0.02,0.96 0.17,1.63 0.46,2.01 0.28,0.38 0.87,0.7 1.75,0.93 0.43,0.16 1.02,0.3 1.75,0.46 0.6,0.13 0.9,0.43 0.92,0.89 0,0.5 -0.48,0.75 -1.43,0.75l-0.83 0c-1.94,-0.12 -3.77,-0.19 -5.52,-0.21 -0.75,0 -1.2,0.01 -1.36,0.03 -1.07,0.14 -1.68,0.2 -1.8,0.18 -0.64,0.02 -0.96,-0.24 -0.98,-0.78 -0.02,-0.38 0.26,-0.67 0.86,-0.86 1.13,-0.46 1.71,-1.47 1.75,-3.05 0.02,-0.57 0.03,-1.26 0.03,-2.06l0 -10.3zm-0.35 -16.99l0 0c-0.02,-0.44 0.29,-1.06 0.93,-1.85 0.65,-0.8 1.2,-1.19 1.66,-1.17 0.49,0.04 1.05,0.41 1.66,1.14 0.62,0.72 0.93,1.34 0.95,1.88 0,0.53 -0.32,1.18 -0.94,1.93 -0.63,0.75 -1.17,1.14 -1.66,1.14 -0.47,0.04 -1.05,-0.34 -1.72,-1.15 -0.6,-0.71 -0.89,-1.35 -0.89,-1.92zm13.99 11.89l0 0c-0.78,0.02 -1.29,-0.09 -1.52,-0.32l-0.09 -0.24c0,-0.22 0.17,-0.48 0.49,-0.77l0.77 -0.68c2.16,-1.93 3.72,-3.63 4.71,-5.08l0.43 -0.69c0.12,-0.18 0.26,-0.34 0.43,-0.49l0.23 -0.09c0.32,0.08 0.49,0.25 0.49,0.55l0 0.75 0 4.39 5.57 0 1.58 0c0.27,-0.08 0.54,-0.22 0.81,-0.43 0.32,-0.28 0.58,-0.43 0.74,-0.43 0.33,0 0.5,0.2 0.52,0.58 0,0.21 -0.07,0.44 -0.21,0.72 -0.34,0.72 -0.59,1.21 -0.74,1.43 -0.32,0.5 -0.9,0.76 -1.75,0.77l-0.95 0.03 -5.57 0 0 15.43 0.03 1.18c0.14,2.49 1.51,3.72 4.14,3.68 1.33,0.04 2.71,-0.36 4.11,-1.2 0.2,-0.14 0.39,-0.21 0.54,-0.21 0.35,-0.1 0.53,0.1 0.55,0.58 -0.04,0.63 -1.05,1.42 -3.04,2.38 -1.2,0.6 -2.48,0.89 -3.82,0.89 -1.71,0.02 -3.19,-0.47 -4.45,-1.46 -1.26,-1 -2.02,-2.32 -2.26,-3.97 -0.12,-0.57 -0.17,-1.2 -0.15,-1.89l0 -15.4 -1.58 0z"/>
  <path class="fil0" d="M1173.2 284.89l0 -1.88c1,-0.15 1.99,-0.52 2.94,-1.09 0.77,-0.46 1.31,-0.9 1.64,-1.32 0.32,-0.42 0.49,-1.13 0.49,-2.13l0 -6.46c-1.44,0.3 -2.5,0.55 -3.18,0.72 -0.66,0.17 -1.28,0.37 -1.89,0.59l0 -2.05c0.35,-0.1 0.72,-0.19 1.08,-0.29l3.99 -0.92 0 -3.82c0.02,-1.65 -0.6,-2.95 -1.83,-3.93 -0.83,-0.65 -1.91,-1.05 -3.24,-1.2l0 -2.01 0.22 -0c1.19,0 2.34,0.13 3.47,0.37 2.29,0.54 3.92,1.62 4.88,3.25 0.6,1.02 0.88,2.98 0.86,5.89l0 10.75 0 1.4c0.19,1.74 0.91,2.6 2.16,2.56 0.36,0.02 0.68,-0.02 0.97,-0.12 0.06,-0.02 0.29,-0.03 0.72,-0.03 0.38,-0.02 0.56,0.11 0.52,0.37 0,0.64 -0.57,1.1 -1.7,1.41 -0.71,0.23 -1.34,0.34 -1.92,0.31 -1.37,0.04 -2.64,-0.66 -3.78,-2.1l-0.67 -0.83 -0.86 0.55c-0.57,0.38 -1.11,0.68 -1.61,0.89 -1.07,0.51 -2.15,0.88 -3.26,1.13zm0 -25.8l0 0 0 2.01c-0.32,-0.03 -0.65,-0.06 -0.99,-0.06 -3.27,0.08 -4.92,1.01 -4.94,2.78 -0.02,0.46 0.05,1.02 0.2,1.67l0.18 0.89c0.09,0.38 0.15,0.64 0.17,0.77 -0.02,0.54 -0.42,0.8 -1.2,0.8 -0.5,0.02 -1.01,-0.08 -1.55,-0.29 -1.13,-0.32 -1.68,-0.91 -1.64,-1.75 0.02,-1.81 1.02,-3.44 2.99,-4.88 0.89,-0.67 1.96,-1.16 3.19,-1.48 1.16,-0.29 2.36,-0.45 3.61,-0.47zm0 12.18l0 0 0 2.05c-0.62,0.23 -1.21,0.48 -1.77,0.77 -2.21,1.07 -3.3,2.66 -3.3,4.73 0.02,2.89 1.32,4.32 3.91,4.29 0.39,0 0.78,-0.03 1.16,-0.09l0 1.88c-1.08,0.24 -2.17,0.36 -3.29,0.36 -0.84,0.02 -1.62,-0.07 -2.32,-0.25 -1.23,-0.27 -2.2,-0.97 -2.9,-2.1 -0.66,-1.02 -0.96,-2.2 -0.92,-3.54 0.04,-3.16 2.12,-5.51 6.24,-7.06 1.01,-0.38 2.07,-0.73 3.2,-1.04zm-25.31 13.97l0 0 0 -3.61c0.98,0.39 2.06,0.57 3.26,0.54 1.01,0.02 1.93,-0.13 2.75,-0.43 1.44,-0.48 2.78,-1.2 4.02,-2.19 0.38,-0.28 0.7,-0.44 0.93,-0.46 0.36,0 0.53,0.17 0.49,0.49 -0.04,0.63 -0.82,1.54 -2.35,2.73 -1.12,0.88 -2.26,1.55 -3.42,2.01 -1.55,0.66 -3.17,0.97 -4.85,0.95 -0.28,0 -0.55,-0.01 -0.82,-0.03zm0 -15.46l0 0 0 -1.95 3.66 0 1.53 -0.06c0.67,-0.04 1.01,-0.31 1.03,-0.83 0,-0.29 -0.06,-0.61 -0.18,-0.98 -0.97,-3.28 -2.97,-4.91 -6,-4.91l-0.04 0 0 -1.92c0.29,-0.02 0.58,-0.03 0.88,-0.03 2.68,0 4.98,0.93 6.91,2.79 0.83,0.78 1.58,1.81 2.24,3.08 0.77,1.47 1.17,2.67 1.21,3.59 0,0.77 -0.48,1.18 -1.43,1.24 -0.29,0.02 -0.99,0.02 -2.1,0l-7.72 0zm0 -10.66l0 0 0 1.92c-3.23,-0.04 -5.3,2.22 -6.22,6.78l6.22 0 0 1.95 -6.33 0 0 0.72c-0.02,2.25 0.39,4.24 1.23,5.98 1.02,2.11 2.34,3.63 3.96,4.57 0.36,0.23 0.74,0.42 1.14,0.58l0 3.61c-2.95,-0.2 -5.43,-1.46 -7.43,-3.8 -2.2,-2.54 -3.29,-5.45 -3.27,-8.73 -0.02,-3.29 1.02,-6.39 3.13,-9.29 1.93,-2.65 4.45,-4.08 7.57,-4.3zm-59.66 25.77l0 0 0 -1.88c1.01,-0.15 1.99,-0.52 2.95,-1.09 0.77,-0.46 1.31,-0.9 1.64,-1.32 0.32,-0.42 0.49,-1.13 0.49,-2.13l0 -6.46c-1.44,0.3 -2.5,0.55 -3.19,0.72 -0.65,0.17 -1.28,0.37 -1.89,0.59l0 -2.05c0.35,-0.1 0.72,-0.19 1.08,-0.29l3.99 -0.92 0 -3.82c0.02,-1.65 -0.6,-2.95 -1.83,-3.93 -0.83,-0.65 -1.91,-1.05 -3.24,-1.2l0 -2.01 0.22 -0c1.19,0 2.35,0.13 3.47,0.37 2.3,0.54 3.93,1.62 4.89,3.25 0.6,1.02 0.88,2.98 0.86,5.89l0 10.75 0 1.4c0.19,1.74 0.91,2.6 2.16,2.56 0.36,0.02 0.69,-0.02 0.97,-0.12 0.06,-0.02 0.29,-0.03 0.72,-0.03 0.38,-0.02 0.56,0.11 0.52,0.37 0,0.64 -0.57,1.1 -1.7,1.41 -0.71,0.23 -1.34,0.34 -1.92,0.31 -1.37,0.04 -2.64,-0.66 -3.78,-2.1l-0.67 -0.83 -0.86 0.55c-0.57,0.38 -1.11,0.68 -1.61,0.89 -1.07,0.51 -2.15,0.88 -3.26,1.13zm0 -29.98l0 0 0 -3.43 2.34 -1.71c1,-0.73 1.85,-1.09 2.59,-1.09 1.2,-0.02 1.83,0.47 1.89,1.46 -0.02,0.75 -0.55,1.41 -1.58,1.99l-5.24 2.78zm24.31 7.3l0 0c2.52,-2.09 5.19,-3.13 7.99,-3.13 1.19,0 2.32,0.24 3.42,0.72 1.79,0.8 3.16,2.06 4.08,3.75 0.91,1.7 1.4,3.44 1.46,5.25 0.02,0.49 0.03,1.64 0.03,3.41l0 5.58c-0.02,0.83 -0.01,1.44 0.03,1.86 0.06,1.57 0.81,2.55 2.27,2.93l1.73 0.46c0.58,0.15 0.87,0.45 0.89,0.89 0,0.5 -0.5,0.75 -1.49,0.75l-0.89 0c-1.93,-0.12 -3.91,-0.19 -5.92,-0.21 -0.8,0 -1.28,0.01 -1.46,0.03 -1.15,0.14 -1.79,0.2 -1.9,0.18 -0.72,0.02 -1.04,-0.24 -0.98,-0.78l0.06 -0.31c0.06,-0.22 0.36,-0.39 0.92,-0.55 1.53,-0.46 2.32,-1.47 2.36,-3.05 0.02,-0.57 0.03,-1.26 0.03,-2.06l0 -5.49c0,-1.46 -0.04,-2.68 -0.12,-3.66 -0.15,-1.99 -0.83,-3.56 -2.04,-4.72 -1.32,-1.26 -2.91,-1.89 -4.74,-1.89 -1.36,0 -2.67,0.35 -3.91,1.06 -1.47,0.82 -2.34,1.81 -2.61,2.96 -0.1,0.38 -0.15,1.1 -0.15,2.13l-0.03 2.1 0 7.36c-0.02,0.83 -0.01,1.44 0.03,1.86 0.06,1.61 0.81,2.59 2.26,2.93l1.73 0.46c0.6,0.19 0.89,0.5 0.89,0.92 -0.02,0.48 -0.51,0.72 -1.46,0.72l-0.83 0c-1.96,-0.12 -3.93,-0.19 -5.92,-0.21 -0.82,0 -1.32,0.01 -1.49,0.03 -1.13,0.14 -1.79,0.2 -1.95,0.18 -0.63,0.02 -0.96,-0.24 -0.98,-0.78 -0.02,-0.34 0.26,-0.64 0.86,-0.86l0.98 -0.38c0.95,-0.42 1.45,-1.31 1.49,-2.68l0.03 -2.06 0 -10.22 0 -2.1c0.02,-1.33 -0.55,-2.06 -1.7,-2.15l-1.55 -0.18c-0.5,-0.04 -0.77,-0.18 -0.8,-0.4l-0.06 -0.25c0,-0.38 0.24,-0.64 0.72,-0.77l0.89 -0.31 2.81 -1.07c0.8,-0.32 1.67,-0.72 2.59,-1.18 0.3,-0.13 0.57,-0.21 0.8,-0.23 0.48,-0.1 0.72,0.29 0.72,1.18l-0.03 1.15 -0.03 0.89 0 0.78 0.98 -0.87zm-24.31 -10.73l0 0 0 3.43 -1.13 0.6 -0.69 0.35c-0.35,0.17 -0.71,0.24 -1.07,0.23 -0.77,-0.02 -1.15,-0.33 -1.15,-0.92 0,-0.36 0.15,-0.7 0.43,-1l0.28 -0.26 3.32 -2.43zm0 7.61l0 0 0 2.01c-0.31,-0.03 -0.64,-0.06 -0.99,-0.06 -3.28,0.08 -4.92,1.01 -4.94,2.78 -0.02,0.46 0.05,1.02 0.19,1.67l0.18 0.89c0.09,0.38 0.15,0.64 0.17,0.77 -0.02,0.54 -0.42,0.8 -1.21,0.8 -0.5,0.02 -1.01,-0.08 -1.55,-0.29 -1.13,-0.32 -1.68,-0.91 -1.63,-1.75 0.02,-1.81 1.02,-3.44 2.99,-4.88 0.89,-0.67 1.96,-1.16 3.19,-1.48 1.15,-0.29 2.36,-0.45 3.6,-0.47zm0 12.18l0 0 0 2.05c-0.61,0.23 -1.2,0.48 -1.77,0.77 -2.21,1.07 -3.3,2.66 -3.3,4.73 0.02,2.89 1.32,4.32 3.91,4.29 0.39,0 0.77,-0.03 1.16,-0.09l0 1.88c-1.08,0.24 -2.17,0.36 -3.29,0.36 -0.84,0.02 -1.62,-0.07 -2.32,-0.25 -1.23,-0.27 -2.2,-0.97 -2.9,-2.1 -0.66,-1.02 -0.96,-2.2 -0.92,-3.54 0.04,-3.16 2.12,-5.51 6.23,-7.06 1.01,-0.38 2.07,-0.73 3.2,-1.04zm-46.65 13.99l0 0 0 -1.97c0.23,0.02 0.46,0.02 0.7,0.02 2.69,0 4.74,-1.04 6.15,-3.13 1.17,-1.73 1.75,-4.04 1.75,-6.93 0,-3.02 -0.69,-5.71 -2.1,-8.04 -1.6,-2.66 -3.77,-4.05 -6.51,-4.16l0 -1.96 0.04 0c2.64,0.04 5.1,0.78 7.36,2.22 2.27,1.43 3.86,3.42 4.78,5.97 0.52,1.43 0.77,3.03 0.77,4.77 -0.04,4.01 -1.31,7.22 -3.82,9.64 -2.4,2.33 -5.45,3.52 -9.14,3.58zm25.04 -22.92l0 0 1.26 -1.35c1.28,-1.27 2.43,-1.9 3.42,-1.9 0.88,0.04 1.69,0.34 2.44,0.89 1.11,0.84 1.68,1.51 1.7,2.01 0,0.36 -0.3,0.89 -0.9,1.58 -0.61,0.69 -1.06,1.03 -1.36,1.01 -0.22,0 -0.55,-0.13 -1,-0.4 -0.44,-0.25 -0.92,-0.48 -1.42,-0.67 -0.55,-0.21 -1.04,-0.31 -1.46,-0.31 -1.4,-0.02 -2.51,0.91 -3.34,2.78 -0.22,0.59 -0.34,1.38 -0.34,2.35l0 9.46c-0.02,0.81 -0.01,1.42 0.03,1.86 0.06,1.57 0.82,2.55 2.29,2.93l1.75 0.46c0.54,0.18 0.81,0.47 0.83,0.89 0,0.5 -0.5,0.75 -1.49,0.75l-0.95 0c-1.78,-0.12 -3.83,-0.19 -6.15,-0.21 -0.8,0 -1.27,0.01 -1.4,0.03 -0.96,0.14 -1.52,0.2 -1.67,0.18 -0.61,0.02 -0.94,-0.23 -0.98,-0.75 0.02,-0.38 0.33,-0.69 0.95,-0.89 1.51,-0.4 2.31,-1.42 2.38,-3.05 0.02,-0.53 0.03,-1.22 0.03,-2.06l0 -9.18 0 -1.24c-0.06,-1.14 -0.17,-1.94 -0.31,-2.41 -0.24,-0.83 -0.8,-1.33 -1.73,-1.53l-1.38 -0.29c-0.49,-0.1 -0.72,-0.31 -0.68,-0.66 -0.04,-0.3 0.19,-0.57 0.66,-0.77 0.28,-0.14 0.5,-0.23 0.7,-0.29l2.87 -1.07c0.53,-0.17 1.44,-0.57 2.73,-1.2 0.3,-0.13 0.58,-0.21 0.83,-0.23l0.31 0.06c0.29,0.13 0.43,0.51 0.43,1.12l-0.03 1.26 -0.03 0.94 0 0.98 1.01 -1.12zm-25.04 -3.25l0 0 0 1.96 -0.36 -0.01c-1.09,0 -2.12,0.2 -3.08,0.61 -3.38,1.37 -5.11,4.26 -5.17,8.67 0,2.49 0.42,4.8 1.27,6.93 1.03,2.55 2.53,4.3 4.48,5.26 0.87,0.46 1.83,0.72 2.86,0.79l0 1.97 -0.45 0c-3.56,0.06 -6.53,-1.09 -8.91,-3.43 -2.39,-2.34 -3.59,-5.31 -3.61,-8.86 -0.02,-3.9 1.16,-7.15 3.53,-9.74 2.52,-2.74 5.66,-4.13 9.44,-4.14zm-27.34 26.12l0 0 0 -1.9c2.31,0.02 4.28,-1.01 5.89,-3.08 1.11,-1.45 1.69,-3.69 1.73,-6.69 -0.04,-3.07 -0.76,-5.61 -2.16,-7.62 -1.45,-2.09 -3.26,-3.3 -5.46,-3.64l0 -3.16c0.28,-0.03 0.55,-0.04 0.83,-0.04 3.09,0.02 5.62,1.31 7.61,3.86 1.76,2.27 2.65,5.03 2.67,8.26 0,2.19 -0.42,4.25 -1.26,6.18 -1.51,3.53 -3.82,5.89 -6.92,7.1 -0.92,0.38 -1.9,0.62 -2.93,0.72zm0 -26.08l0 0 0 3.16c-0.42,-0.07 -0.86,-0.1 -1.32,-0.1 -1.4,0.02 -2.68,0.35 -3.82,0.98 -1.4,0.78 -2.18,1.79 -2.35,3.02 -0.08,0.5 -0.12,1.51 -0.12,3.05l0 6.92c0.02,2.14 0.24,3.52 0.69,4.13 0.72,0.96 1.88,1.75 3.51,2.36 1.09,0.45 2.19,0.68 3.28,0.66l0.14 0 0 1.9c-0.43,0.04 -0.87,0.06 -1.32,0.05 -1.1,0.02 -2.17,-0.12 -3.25,-0.4 -0.66,-0.13 -1.28,-0.33 -1.9,-0.6l-1.15 -0.49 0 5.75c-0.02,0.84 -0.01,1.47 0.03,1.89 0.08,1.59 0.85,2.57 2.32,2.93l1.73 0.43c0.52,0.18 0.79,0.47 0.83,0.89 0,0.48 -0.42,0.73 -1.27,0.74 -0.42,0.02 -0.76,0.01 -1.03,-0.03 -1.67,-0.1 -3.44,-0.16 -5.31,-0.18l-2.16 0.06c-1.13,0.12 -1.78,0.17 -1.92,0.14 -0.31,0 -0.54,-0.06 -0.69,-0.17l-0.2 -0.23 -0.06 -0.32c-0.04,-0.38 0.24,-0.69 0.86,-0.92l0.95 -0.34c0.95,-0.35 1.46,-1.24 1.52,-2.68 0.02,-0.65 0.03,-1.34 0.03,-2.09l0 -20.06c0,-1.84 -0.01,-2.98 -0.03,-3.42 -0.09,-1.55 -0.67,-2.42 -1.75,-2.62l-1.77 -0.25c-0.38,-0.04 -0.57,-0.27 -0.55,-0.72l0.06 -0.4c0.06,-0.1 0.18,-0.19 0.37,-0.31 0.3,-0.14 0.68,-0.26 1.12,-0.4 1.95,-0.54 3.73,-1.24 5.34,-2.1 0.34,-0.17 0.64,-0.27 0.89,-0.29l0.31 0.06c0.29,0.13 0.43,0.51 0.43,1.12l-0.03 1.26 -0.03 0.92 0 0.46c2.49,-2.31 5.03,-3.57 7.61,-3.79zm-75.53 26.11l0 0 0 -3.61c0.98,0.39 2.07,0.57 3.26,0.54 1.01,0.02 1.93,-0.13 2.75,-0.43 1.44,-0.48 2.78,-1.2 4.02,-2.19 0.38,-0.28 0.7,-0.44 0.92,-0.46 0.36,0 0.53,0.17 0.49,0.49 -0.04,0.63 -0.82,1.54 -2.35,2.73 -1.12,0.88 -2.26,1.55 -3.42,2.01 -1.55,0.66 -3.17,0.97 -4.85,0.95 -0.28,0 -0.56,-0.01 -0.83,-0.03zm0 -15.46l0 0 0 -1.95 3.66 0 1.53 -0.06c0.67,-0.04 1.01,-0.31 1.03,-0.83 0,-0.29 -0.06,-0.61 -0.18,-0.98 -0.97,-3.28 -2.97,-4.91 -6,-4.91l-0.04 0 0 -1.92c0.29,-0.02 0.58,-0.03 0.88,-0.03 2.68,0 4.98,0.93 6.91,2.79 0.83,0.78 1.58,1.81 2.25,3.08 0.77,1.47 1.17,2.67 1.21,3.59 0,0.77 -0.48,1.18 -1.43,1.24 -0.29,0.02 -0.99,0.02 -2.1,0l-7.72 0zm18 -2.05l0 0 0 -2.1c0.02,-1.33 -0.55,-2.06 -1.7,-2.15l-1.55 -0.18c-0.5,-0.04 -0.77,-0.18 -0.8,-0.4l-0.06 -0.25c0,-0.38 0.23,-0.64 0.71,-0.77l0.89 -0.31c1.05,-0.36 1.99,-0.72 2.81,-1.07 0.71,-0.29 1.57,-0.68 2.59,-1.18 0.3,-0.13 0.59,-0.21 0.86,-0.23 0.4,-0.04 0.62,0.25 0.66,0.86l-0.03 0.87c-0.04,0.36 -0.05,0.73 -0.03,1.12l0 0.69 0.63 -0.66c1.88,-1.88 4.2,-2.83 6.97,-2.87 3.07,-0.04 5.43,1.3 7.04,3.99l1.26 -1.12c2.18,-1.89 4.66,-2.85 7.44,-2.87 2.81,0.02 4.95,0.95 6.4,2.79 1.08,1.35 1.63,3.65 1.67,6.93l0.03 3.41 0 5.58c-0.02,0.83 -0.01,1.44 0.03,1.86 0.06,1.61 0.81,2.59 2.27,2.93l1.73 0.46c0.6,0.19 0.89,0.5 0.89,0.92 -0.02,0.5 -0.53,0.74 -1.52,0.72l-0.89 0c-2.17,-0.12 -4.21,-0.19 -6.12,-0.21 -0.78,0 -1.26,0.01 -1.41,0.03 -1.01,0.14 -1.58,0.2 -1.68,0.18 -0.72,0 -1.05,-0.24 -1.01,-0.72 0,-0.42 0.35,-0.72 1.06,-0.92 1.14,-0.35 1.84,-1.02 2.1,-2.04 0.16,-0.56 0.23,-1.58 0.21,-3.07l0 -5.44c0,-2.93 -0.23,-5.13 -0.69,-6.6 -0.77,-2.41 -2.42,-3.65 -4.95,-3.71 -1.97,0.04 -3.64,0.63 -5,1.79l-0.94 0.89 0.17 1.95 0.06 3.65 0 7.34c-0.04,1.39 0.03,2.39 0.2,2.99 0.23,0.79 0.96,1.38 2.21,1.81l1.55 0.46c0.62,0.18 0.93,0.45 0.95,0.83 -0.04,0.54 -0.56,0.81 -1.55,0.81l-0.89 0c-2.01,-0.12 -3.99,-0.19 -5.94,-0.21 -0.77,0 -1.24,0.01 -1.41,0.03l-1.64 0.18c-0.78,0.04 -1.19,-0.21 -1.21,-0.72 0.02,-0.38 0.37,-0.7 1.06,-0.92 1.42,-0.36 2.18,-1.39 2.27,-3.05 0.02,-0.45 0.03,-1.15 0.03,-2.06l0 -5.44c-0.02,-3.02 -0.22,-5.21 -0.61,-6.58 -0.72,-2.45 -2.35,-3.7 -4.88,-3.74 -1.32,0.02 -2.57,0.35 -3.75,1.01 -1.18,0.65 -1.84,1.66 -1.99,3.01 -0.1,0.68 -0.14,1.38 -0.12,2.13l0 9.46c-0.02,0.86 -0.01,1.48 0.03,1.86 0.04,1.17 0.44,1.99 1.2,2.47 0.61,0.36 1.52,0.68 2.73,0.93 0.62,0.15 0.93,0.45 0.95,0.89 0,0.5 -0.47,0.75 -1.41,0.75l-0.8 0c-1.95,-0.12 -3.91,-0.19 -5.88,-0.21 -0.86,0 -1.38,0.01 -1.55,0.03 -1.17,0.14 -1.83,0.2 -1.98,0.18 -0.66,0.02 -0.99,-0.24 -1.01,-0.78 -0.02,-0.34 0.27,-0.64 0.86,-0.86l0.98 -0.38c0.95,-0.42 1.45,-1.31 1.49,-2.68l0.03 -2.06 0 -10.22zm-18 -8.61l0 0 0 1.92c-3.22,-0.04 -5.3,2.22 -6.22,6.78l6.22 0 0 1.95 -6.33 0 0 0.72c-0.02,2.25 0.39,4.24 1.24,5.98 1.02,2.11 2.33,3.63 3.96,4.57 0.36,0.23 0.74,0.42 1.14,0.58l0 3.61c-2.95,-0.2 -5.43,-1.46 -7.43,-3.8 -2.2,-2.54 -3.29,-5.45 -3.27,-8.73 -0.02,-3.29 1.02,-6.39 3.13,-9.29 1.93,-2.65 4.45,-4.08 7.57,-4.3zm-80.17 26.14l0 0 0 -1.97c0.23,0.02 0.46,0.02 0.7,0.02 2.69,0 4.74,-1.04 6.15,-3.13 1.17,-1.73 1.75,-4.04 1.75,-6.93 0,-3.02 -0.7,-5.71 -2.1,-8.04 -1.6,-2.66 -3.76,-4.05 -6.5,-4.16l0 -1.96 0.04 0c2.64,0.04 5.1,0.78 7.36,2.22 2.27,1.43 3.86,3.42 4.78,5.97 0.52,1.43 0.77,3.03 0.77,4.77 -0.04,4.01 -1.31,7.22 -3.82,9.64 -2.4,2.33 -5.45,3.52 -9.14,3.58zm25.2 -23.04l0 0c2.52,-2.09 5.19,-3.13 7.98,-3.13 1.19,0 2.32,0.24 3.42,0.72 1.79,0.8 3.16,2.06 4.08,3.75 0.91,1.7 1.4,3.44 1.46,5.25 0.02,0.49 0.03,1.64 0.03,3.41l0 5.58c-0.02,0.83 -0.01,1.44 0.03,1.86 0.06,1.57 0.81,2.55 2.27,2.93l1.73 0.46c0.58,0.15 0.87,0.45 0.89,0.89 0,0.5 -0.5,0.75 -1.49,0.75l-0.89 0c-1.93,-0.12 -3.91,-0.19 -5.92,-0.21 -0.8,0 -1.29,0.01 -1.46,0.03 -1.15,0.14 -1.79,0.2 -1.9,0.18 -0.72,0.02 -1.04,-0.24 -0.98,-0.78l0.06 -0.31c0.06,-0.22 0.36,-0.39 0.92,-0.55 1.53,-0.46 2.32,-1.47 2.36,-3.05 0.02,-0.57 0.03,-1.26 0.03,-2.06l0 -5.49c0,-1.46 -0.04,-2.68 -0.12,-3.66 -0.15,-1.99 -0.83,-3.56 -2.04,-4.72 -1.33,-1.26 -2.91,-1.89 -4.74,-1.89 -1.36,0 -2.67,0.35 -3.91,1.06 -1.47,0.82 -2.34,1.81 -2.61,2.96 -0.1,0.38 -0.15,1.1 -0.15,2.13l-0.03 2.1 0 7.36c-0.02,0.83 -0.01,1.44 0.03,1.86 0.06,1.61 0.81,2.59 2.27,2.93l1.73 0.46c0.6,0.19 0.89,0.5 0.89,0.92 -0.02,0.48 -0.51,0.72 -1.46,0.72l-0.83 0c-1.96,-0.12 -3.93,-0.19 -5.92,-0.21 -0.83,0 -1.32,0.01 -1.49,0.03 -1.13,0.14 -1.79,0.2 -1.95,0.18 -0.63,0.02 -0.96,-0.24 -0.98,-0.78 -0.02,-0.34 0.26,-0.64 0.86,-0.86l0.98 -0.38c0.95,-0.42 1.45,-1.31 1.49,-2.68l0.03 -2.06 0 -10.22 0 -2.1c0.02,-1.33 -0.55,-2.06 -1.7,-2.15l-1.55 -0.18c-0.5,-0.04 -0.77,-0.18 -0.8,-0.4l-0.06 -0.25c0,-0.38 0.24,-0.64 0.72,-0.77l0.89 -0.31 2.81 -1.07c0.8,-0.32 1.67,-0.72 2.59,-1.18 0.3,-0.13 0.57,-0.21 0.8,-0.23 0.48,-0.1 0.72,0.29 0.72,1.18l-0.03 1.15 -0.03 0.89 0 0.78 0.98 -0.87zm25.63 0.32l0 0c-0.79,0.02 -1.3,-0.09 -1.52,-0.32l-0.09 -0.24c0,-0.22 0.17,-0.48 0.49,-0.77l0.77 -0.68c2.16,-1.93 3.73,-3.63 4.71,-5.08l0.43 -0.69c0.12,-0.18 0.25,-0.34 0.43,-0.49l0.23 -0.09c0.32,0.08 0.49,0.25 0.49,0.55l0 0.75 0 4.39 5.57 0 1.58 0c0.26,-0.08 0.54,-0.22 0.8,-0.43 0.32,-0.28 0.58,-0.43 0.75,-0.43 0.32,0 0.5,0.2 0.52,0.58 0,0.21 -0.07,0.44 -0.21,0.72 -0.34,0.72 -0.59,1.21 -0.74,1.43 -0.32,0.5 -0.9,0.76 -1.74,0.77l-0.95 0.03 -5.57 0 0 15.43 0.03 1.18c0.14,2.49 1.51,3.72 4.14,3.68 1.33,0.04 2.71,-0.36 4.11,-1.2 0.21,-0.14 0.39,-0.21 0.54,-0.21 0.35,-0.1 0.53,0.1 0.55,0.58 -0.04,0.63 -1.05,1.42 -3.04,2.38 -1.2,0.6 -2.48,0.89 -3.82,0.89 -1.7,0.02 -3.18,-0.47 -4.45,-1.46 -1.26,-1 -2.02,-2.32 -2.26,-3.97 -0.12,-0.57 -0.17,-1.2 -0.15,-1.89l0 -15.4 -1.58 0zm-184.49 14.66l0 0c-0.04,-0.83 0.21,-1.26 0.75,-1.33 0.32,0.04 0.56,0.26 0.68,0.66 0.1,0.31 0.24,0.79 0.4,1.44 0.1,0.52 0.25,1 0.46,1.43 1.04,2.63 2.91,3.93 5.63,3.91 1.31,0.04 2.44,-0.36 3.42,-1.2 0.97,-0.84 1.48,-1.95 1.52,-3.33 -0.02,-1.61 -0.84,-2.86 -2.46,-3.77 -0.76,-0.42 -1.5,-0.79 -2.24,-1.12l-2.59 -1.15c-0.82,-0.36 -1.58,-0.79 -2.26,-1.3 -2.01,-1.4 -3.02,-3.16 -3.02,-5.28 0,-2.07 0.81,-3.81 2.44,-5.21 1.4,-1.19 3.25,-1.8 5.55,-1.86 0.91,0 1.85,0.09 2.81,0.26 1.47,0.27 2.41,0.67 2.81,1.18 0.14,0.24 0.22,0.61 0.26,1.13 0.1,1.05 0.15,2.01 0.15,2.86l0 0.29c0.02,0.74 -0.2,1.12 -0.66,1.12l-0.14 0 -0.23 -0.15c-0.08,-0.06 -0.15,-0.19 -0.23,-0.4 -0.12,-0.23 -0.35,-0.62 -0.69,-1.18 -1.34,-2.07 -3.07,-3.12 -5.17,-3.16 -1.04,0.02 -1.94,0.32 -2.71,0.92 -0.76,0.59 -1.15,1.39 -1.15,2.41 0,1.22 0.68,2.23 2.06,3.02 0.84,0.51 1.8,1 2.88,1.46l2.58 1.09c0.94,0.42 1.72,0.81 2.33,1.19 1.27,0.83 2.09,2.09 2.47,3.76 0.17,0.72 0.25,1.41 0.25,2.1 -0.04,2.17 -0.72,3.98 -2.07,5.46 -1.63,1.87 -3.71,2.81 -6.24,2.81 -1.13,0.02 -2.22,-0.19 -3.3,-0.61l-2.01 -0.75 -1.09 -0.28c-0.65,-0.18 -0.99,-0.53 -1,-1.06 -0.1,-0.94 -0.16,-1.88 -0.18,-2.82l-0.03 -2.55zm133.65 -18.1l0 0 0 1.96 -0.36 -0.01c-1.09,0 -2.12,0.2 -3.08,0.61 -3.38,1.37 -5.11,4.26 -5.16,8.67 0,2.49 0.42,4.8 1.26,6.93 1.03,2.55 2.53,4.3 4.48,5.26 0.88,0.46 1.83,0.72 2.86,0.79l0 1.97 -0.45 0c-3.56,0.06 -6.53,-1.09 -8.91,-3.43 -2.39,-2.34 -3.59,-5.31 -3.61,-8.86 -0.02,-3.9 1.16,-7.15 3.53,-9.74 2.52,-2.74 5.66,-4.13 9.44,-4.14zm-80.49 7.82l0 0c0.23,-0.66 0.41,-1.31 0.55,-1.99l0.06 -0.97c-0.02,-1.18 -0.6,-1.97 -1.73,-2.33l-1 -0.32c-0.58,-0.17 -0.85,-0.42 -0.83,-0.74 0.02,-0.58 0.45,-0.87 1.3,-0.89 0.3,0 0.65,0.02 1.03,0.06 0.96,0.12 1.81,0.17 2.56,0.15 0.72,0.02 1.52,-0.03 2.38,-0.15 0.32,-0.04 0.63,-0.06 0.92,-0.06 0.69,0.04 1.03,0.3 1.03,0.8 0,0.4 -0.19,0.68 -0.58,0.83l-0.77 0.35c-0.73,0.34 -1.39,1.33 -2.01,2.96l-0.86 2.33 -5.32 14.78 -1.15 3.36 -1.27 3.91c-0.42,1.23 -0.76,2.17 -1.03,2.85l-1.32 3.04c-0.38,0.92 -1.16,1.36 -2.32,1.32 -1.42,0.02 -2.15,-0.24 -2.19,-0.77 -0.02,-0.18 0.11,-0.42 0.37,-0.75l1.69 -2.07c2.26,-2.89 3.41,-5.32 3.45,-7.29 0,-0.67 -0.33,-1.87 -1.01,-3.6l-5.85 -14.53 -1.1 -2.59c-0.72,-1.55 -1.33,-2.5 -1.83,-2.84l-0.95 -0.46c-0.48,-0.2 -0.73,-0.51 -0.75,-0.89 -0.04,-0.52 0.35,-0.77 1.18,-0.75 0.34,0 0.62,0.01 0.8,0.03 1.17,0.14 2.28,0.19 3.36,0.18 0.99,0.02 2.23,-0.04 3.71,-0.18 0.23,-0.02 0.48,-0.03 0.77,-0.03 0.67,0 1.02,0.27 1.06,0.83 -0.04,0.48 -0.23,0.74 -0.58,0.8l-0.97 0.23c-1.09,0.26 -1.63,0.83 -1.61,1.73 -0.02,0.4 0.07,0.82 0.25,1.26l0.86 2.18 5.24 12.96 -0.01 0 4.46 -12.75zm63.04 13.53l0 0c-4.14,3.2 -9.58,4.8 -16.35,4.82 -6.43,0.04 -11.57,-1.79 -15.39,-5.49 -3.97,-3.84 -5.94,-8.9 -5.92,-15.16 -0.02,-2.42 0.29,-4.68 0.92,-6.79 0.82,-2.81 2.16,-5.36 4.05,-7.64 1.53,-1.88 3.34,-3.43 5.43,-4.66 1.66,-0.99 3.42,-1.72 5.28,-2.16 1.72,-0.42 3.7,-0.63 5.91,-0.63 5.08,0.02 9.24,1.12 12.47,3.3 0.67,0.52 1.2,0.77 1.61,0.75 0.23,0.02 0.58,-0.19 1.06,-0.61 0.24,-0.17 0.42,-0.26 0.58,-0.29 0.08,-0.02 0.15,0 0.23,0.06 0.18,0.12 0.29,0.42 0.37,0.92l0.7 5.51 0.23 2.08 0 0.43c0,0.59 -0.11,0.92 -0.31,1l-0.31 0.06c-0.33,0.02 -0.55,-0.1 -0.67,-0.35l-0.26 -0.55c-0.73,-1.74 -2.24,-3.71 -4.54,-5.89 -2.64,-2.51 -6.3,-3.77 -10.97,-3.77 -2.43,0 -4.66,0.33 -6.67,1.01 -3.38,1.15 -5.96,3.32 -7.72,6.52 -1.63,2.93 -2.43,6.25 -2.41,9.94 -0.02,5.4 1.45,9.99 4.42,13.76 3.17,4.01 7.45,5.99 12.87,5.95 3.26,0 6.28,-0.72 9.05,-2.16 2.89,-1.51 5.08,-3.7 6.55,-6.55 0.27,-0.5 0.54,-0.74 0.81,-0.72 0.48,0.06 0.72,0.36 0.74,0.92 -0.02,0.24 -0.07,0.59 -0.14,1.03l-0.97 4.77 -0.64 0.55z"/>
  <path class="fil0" d="M1189.01 277.19c-0.04,-0.83 0.2,-1.26 0.74,-1.33 0.32,0.04 0.56,0.26 0.69,0.66 0.1,0.31 0.24,0.79 0.4,1.44 0.1,0.52 0.25,1 0.46,1.43 1.04,2.63 2.91,3.93 5.63,3.91 1.31,0.04 2.44,-0.36 3.43,-1.2 0.97,-0.84 1.48,-1.95 1.52,-3.33 -0.02,-1.61 -0.84,-2.86 -2.46,-3.77 -0.76,-0.42 -1.5,-0.79 -2.24,-1.12l-2.59 -1.15c-0.82,-0.36 -1.58,-0.79 -2.27,-1.3 -2.01,-1.4 -3.02,-3.16 -3.02,-5.28 0,-2.07 0.82,-3.81 2.44,-5.21 1.4,-1.19 3.24,-1.8 5.55,-1.86 0.91,0 1.85,0.09 2.81,0.26 1.47,0.27 2.41,0.67 2.81,1.18 0.14,0.24 0.22,0.61 0.25,1.13 0.1,1.05 0.15,2.01 0.15,2.86l0 0.29c0.02,0.74 -0.2,1.12 -0.66,1.12l-0.15 0 -0.23 -0.15c-0.08,-0.06 -0.16,-0.19 -0.24,-0.4 -0.12,-0.23 -0.35,-0.62 -0.69,-1.18 -1.34,-2.07 -3.07,-3.12 -5.17,-3.16 -1.04,0.02 -1.94,0.32 -2.7,0.92 -0.77,0.59 -1.15,1.39 -1.15,2.41 0,1.22 0.69,2.23 2.06,3.02 0.84,0.51 1.81,1 2.88,1.46l2.58 1.09c0.94,0.42 1.71,0.81 2.33,1.19 1.26,0.83 2.09,2.09 2.47,3.76 0.17,0.72 0.25,1.41 0.25,2.1 -0.04,2.17 -0.72,3.98 -2.07,5.46 -1.63,1.87 -3.71,2.81 -6.23,2.81 -1.13,0.02 -2.23,-0.19 -3.3,-0.61l-2.01 -0.75 -1.09 -0.28c-0.65,-0.18 -0.99,-0.53 -1,-1.06 -0.1,-0.94 -0.15,-1.88 -0.18,-2.82l-0.03 -2.55z"/>
  <path class="fil1" d="M184.79 99.14c40.22,14.73 72.12,47.92 71.29,94.87 -0.15,8.26 -1.7,16.36 -4.51,24.12 -6.9,19.07 -20.87,35.12 -36.73,47.41 -8.67,6.71 -19.02,13.07 -30.05,18.22l0 -21.42c11.27,-7.18 21.19,-16.53 28.82,-27.47 8.79,-12.64 14.88,-28.09 14.45,-43.66 -0.88,-31.76 -18.11,-58.5 -43.26,-74.08l0 -17.98zm0 87.13l0 0c3.1,-5.11 4.96,-10.86 4.96,-17.21 0,-5.01 -0.96,-10.11 -3.91,-14.28 -0.34,-0.47 -0.69,-0.91 -1.06,-1.33l0 32.82zm-88.02 93.59l0 0c7.33,1.47 14.75,2.26 22.07,2.3l-0.01 -68.34c-7.46,-0.46 -14.91,-1.86 -22.06,-4.18l0 -16.44c6.56,3.89 14.11,6.29 22.06,7.33l-0.09 -97.1c-8.06,1.83 -15.54,4.98 -21.97,9.31l0 -16.64c7.12,-2.38 14.54,-3.87 22,-4.55l0.06 -61.47c0,-2.31 -1.77,-3.85 -3.75,-4.68 -0.96,-0.41 -3.03,-0.09 -4.34,-0.59 -1.53,-0.58 -2.45,-1.85 -2.45,-3.5 0,-1.26 0.69,-2.32 1.77,-2.95 5.79,-3.41 12.56,-4.79 18.55,-7.76 4.88,-2.41 9.82,-5.37 14.58,-8.05 1.35,-0.76 2.77,-1.57 4.2,-2.17 2.39,-1.01 4.54,0.04 4.54,2.77 0,0.78 -0.13,1.6 -0.6,2.26 -1.11,1.52 -2.29,3.01 -3.45,4.49 -1.26,1.62 -3.13,3.87 -4.06,5.68 -0.93,1.82 -1.61,5.39 -1.61,7.43l-0.14 67.71c14.57,0.57 29.13,3.45 42.73,8.43l0 17.98c-12.64,-7.84 -27.29,-12.86 -42.87,-14.29l-0.34 97.18c6.63,-1.23 13.75,-5.33 18.75,-9.38 6.06,-4.91 11.94,-11.58 13.08,-19.59 0.48,-3.41 -0.35,-8.37 -4.74,-8.37 -1.27,0 -3,0.06 -4.2,0.51 -0.25,0.09 -1,0.39 -1.15,0.63l-0.02 0.06 -0.04 0.08c-0.62,1.29 -1.6,2.75 -3.21,2.75 -1.4,0 -2.24,-1.15 -2.66,-2.35l-0.03 -0.07 -0.02 -0.07c-0.19,-0.72 -0.2,-1.62 -0.2,-2.36 0,-1.04 0.18,-2.07 0.51,-3.05 2.38,-7.05 7.47,-10.55 14.88,-10.55 4.91,0 9.09,1.63 12.23,5.2l0 32.82c-2.39,3.94 -5.51,7.5 -9.08,10.67l-0.03 0.03 -0.03 0.03c-9.83,7.94 -21.59,13.08 -34.08,14.91l-0.07 67.59c10.92,-1.79 21.27,-5.9 31.27,-10.56 4.14,-1.93 8.15,-4.14 12.01,-6.6l0 21.42c-14.19,6.62 -29.49,11.25 -43.75,12.06 -6.58,0.38 -12.76,1.41 -19.4,1.17 -8.32,0.05 -16.67,-0.7 -24.87,-2.2l0 -14.92zm-81.95 -70.42l0 0c5.92,23.16 20.92,41.55 41.02,54.23 12.24,7.72 26.4,13.29 40.93,16.2l0 14.92c-49.06,-8.97 -93.18,-44.83 -96.65,-97.73l-0.12 -1.78 0.15 0c0,-0.56 0.03,-1.11 0.07,-1.67 0.52,-6.93 5.09,-16.35 13.12,-16.35 0.98,0 1.95,0.16 2.87,0.48 6.33,2.18 8.45,10.13 7.99,16.12 -0.45,5.87 -3.59,13.18 -9.4,15.58zm81.95 0.2l0 0 0 -16.44c-7.85,-4.65 -14.27,-11.43 -18.23,-20.54 -2.59,-5.96 -3.84,-12.4 -3.84,-18.89 0,-18.05 8.77,-32.08 22.06,-41.04l0 -16.64c-7.09,2.37 -13.88,5.6 -20.1,9.78 -11.32,7.6 -20.52,18.21 -25.05,31.19 -1.86,5.33 -2.86,10.89 -2.97,16.54 -0.06,2.93 0.19,5.86 0.71,8.74 2.67,14.64 12.36,26.96 24.17,35.56 7.03,5.11 14.93,9.04 23.24,11.74z"/>
 </g>
</svg>
